<mxfile host="app.diagrams.net" agent="Mozilla/5.0 (Windows NT 10.0; Win64; x64) AppleWebKit/537.36 (KHTML, like Gecko) Chrome/136.0.0.0 Safari/537.36 Edg/136.0.0.0" version="26.3.0">
  <diagram name="Page-1" id="rcB-OC-LEUrVB-GrQ3WJ">
    <mxGraphModel dx="2060" dy="1859" grid="1" gridSize="10" guides="1" tooltips="1" connect="1" arrows="1" fold="1" page="1" pageScale="1" pageWidth="827" pageHeight="1169" math="0" shadow="0">
      <root>
        <mxCell id="0" />
        <mxCell id="1" parent="0" />
        <mxCell id="GUjsyFHACSfxRPO5kIcC-1" value="" style="rounded=0;whiteSpace=wrap;html=1;" vertex="1" parent="1">
          <mxGeometry x="80" y="-900" width="710" height="1240" as="geometry" />
        </mxCell>
        <mxCell id="GUjsyFHACSfxRPO5kIcC-2" value="" style="rounded=1;whiteSpace=wrap;html=1;" vertex="1" parent="1">
          <mxGeometry x="90" y="-550" width="340" height="210" as="geometry" />
        </mxCell>
        <mxCell id="GUjsyFHACSfxRPO5kIcC-3" value="" style="rounded=1;whiteSpace=wrap;html=1;" vertex="1" parent="1">
          <mxGeometry x="90" y="-890" width="690" height="330" as="geometry" />
        </mxCell>
        <mxCell id="GUjsyFHACSfxRPO5kIcC-4" value="" style="shape=image;imageAspect=0;aspect=fixed;verticalLabelPosition=bottom;verticalAlign=top;image=data:image/png,iVBORw0KGgoAAAANSUhEUgAAB7kAAALBCAYAAAAteBVaAADAnElEQVR4nOz923Vb2RH2e1ctgN3aV1769r6wiYNmR9BQBA1F0FQEoiIQOwJSEVCKgFQEpCIgOgLBEWiKBPzqxk34xu63Aaz6LgjoyANIAqh1+P/G8HAfJPIZwxbXwqxZVSIAAAAAAAAAAAAAAAAAAAAAAAAAAAAAgOVS7wAA7iaEEO76e2OMcXlJAAAAAGA9+BwEAMDthBBSEUm//efjsaSq3/9zMxltbMjo23/OcxQAkDcUuYE1mr9UjseSWjINmkkqNU01k9RU/ibzF07TICJiZmH+e1UlfPv1lsVM4ux7jER0JCJiIiNVG6nJh1mWaImMEquNZi+7McY4WlUmAAAAAOUwL0xPJhIynabffA56JCJipqmKpCKWmn0+cF/35yBRu/hnl3wOqtclisiIz0EAgHULIYQrzhMficjsLPHzMzRJ5Kvn6bJd8wwdqcl/eH4CANaBIjewBPPi9V/TaUczSVU1mMqji4MaC2aSrvJwxpOZRFWNIiKi1p+/yKrWYr0ukVueAAAAQDmFENLxWML8wL2Kn4Nml4OjqHwwszg7zO9zkA8AWNT8eSoy7UhNUzF5ZKahbM9SVRldFMd1JGpR7eLZyRkiAOCuKHIDCwohhHkRWxL9WURSMemU6WVzhfqzF9j+/PBHs1ocDmPfOxgAAACAq336HKQa5ofuYtZZdYdYSfS//BykWdLnEB8AqunLQvb8UpiYdFQl8Dz9Sv+SZyeXxwAAl6LIDXzjYvzPtMsL59r0TTQmYv/M1PoUvwEAAID1+qqDLNGf54VsLvOuxkUnm/ZNZKSJ/U7xGwDK5ZsLYj9bJl2eqfczf3aKWt/Efuf8EAAgQpEbFRZCSP+aXhSzxeRnMemISMc5Fj7RnlyM/funZkl/MIg970QAAABA0c0v9VLMzh8O8AGgeD6dL4r+YqYhUevSKLNO2hO1voj9U7Jan+cmAFQLRW5UwpcFbcv0Fw5yCqsvKn0R+50XVwAAAOB6Xxa0xbSjah0O3ovl28L3D7Van45vAPATQgjjLNuiQzuf5s9NFftdJOkx6hwAyo0iN0qp0QgdqWVdXjjLTVVGmWlvPuKPbm8AAG4WQkjH0+nW8Ozs0DsLgOUJIaSTiXQsyTqW6S90kpWYSjTTvmr2lsu/ALBaXxa1VWSLZ2sRXXR7qyVvKXoDQLlQ5EbhfXmYI5n+SndCdX3qckjsLUVvAAC+FkJI/5pkLxKVHTNJN+rJQw54gOL6cjyqmHSF1UvVRdEbAJYmhJCOx9MtSfRny2SLxpky0p4k9lamSY9nJgAUG0VuFFKzGbqZZL+oaJeiNq7yqdNbs7cbtVqPsX4AgCpqNkPXNHsmJttf/QuT34bD01cuoQDc2qfLvZr9SlEb11KJItIzsbc/XHwOGjknAoBc+9StnemvItb1zoM14pkJAIVGkRuFMH/ZZOwe7uXixfVYLXlLlzeqrtls7xo30rEao+HZ6W/eITArbovtXn1Qp73h4MOTtYYCcCtfXu7l0B13R8caAHxrdhH0V7q18TXtiWZvaJYBgGKgyI3c4mUTq/RNl/cxNzVRNY3moxMOy7ESKnF4dvqTd4wqu7m4/Rkjy4F8+WJE6i/s/cRKzDrW1JI3XPwFUDXzs0YV2eYZi5tR8AaAvKPIjdzgQAe+eHFFtVDkxspQ5HbTaLW2xZJnt/mzrSIvB4PTvZWFAnAjRqTCi6qMTOTYxN7+6+zs2DsPAKxCI4SOTbJfxWSbJhrcHeeGAJBHFLnhKoSQjrNsmwMd5Asvrig/itxYGYrca9dotbZFdFfsLod2jCwHPIQQwl+T7BljyJEXFLwBlAnnjViti3PD4dnZoXcSAKg6itxYO140USQmeqyaveXFFWVDkRsrQ5F7be5X3P5so578xKUuYPUobKMwGGkOoKCazdAVtRci1mVCJFZtfkGM5yUA+KHIjbX4NIpcbzdCE8gNDnpQMhS5sTIUuVduWcXtOUaWA6sTQkj/mmQvKGyjsFSimRz+UE/ecCEKQB598azdErGOdx5UlEoUsZdMhQSA9aLIjZVqNkPXNHvGjm2UCi+uKAGK3FgZitwrs+zi9if8bwYsFZOrUF6MZwWQH7Mzx19VZJszR+SKyqFkyevhMPa9owBA2VHkxtLNb1AmKju8ZKL0VA7p7kYRUeTGylAwXbqVFbe/oJI84VkG3A+H7aiM2ZSrjVrykku/ANat2QxdE9vl8ywKoC9qr7kcBgCrQ5EbSxFCSKdT6WZ2sffGOw+wdnR3o2AocmNlKHIvzZoP8F4PB6c7a/g+QKkwIhWguxvA6n2akmLyYpUXP4GV4MwQAFaGIjfuha5t4GuqMjKRY7oakHcUubEyFLnvzak7ZTQcnD5c4/cDCq3ZDF3Riwu+fA4ChAN8ACvBuSNKR+WQM0MAWB6K3LgTRgMBNzPR40T0NeNfkUcUubEyFLnvzPv9ipHlwPXYtQ0siAN8APdEcRulx7MSAJaCIjcW9mkUn8o2o4GAW5h1NTDCD3lCkRsrQ5H71kIIYTzNdsVk2zkKI8uBS3DQDtyRyqFa8oYLVAAWxTMXlUOxGwDuhSI3bsQLJrAkFLuRIxS5sTIUuReWw3es0UY9+SnGOPIOAuSB93QFoDzY2w3gejl8LwbWi2I3ANwJRW5cqdkMXdPsWQ66ioByodiNHKDIjZWhyL2QzWZ7N4+HeIwsByhuAyvD5yAAl2i0WtsiusvUSEAodgPALVHkxnc41AHWhEMeOKLIjZWhyH2t2SXCg7we4pno8b8GH5565wA8NFqtbbHkGc9HYMX4HARAOH8ErkWxGwAWQpEbn/ByCTjhkAcOKHJjZShyX6pA71mMLEelhBDScZZti8mLvF4+AUqLz0FAJYUQwnhiBwV4LwbcmcjeD/XkDcVuALgcRW4U6dAVKDcOebBGFLmxMhS5vxJCSMfTbFdMdryzLCpRe37Gswglx+5PIEdUolrynHUZQLnx7AXuiPNCALhS4h0AfprN0G00H52YZBQ6gDwwCWJ60Gi131/spAIAFFmzHV5Mptn7IhW4RUQyS555ZwBWqdFqbU+m2XsV2eOQHcgBk2CSnWw2Hx2FEIJ3HADLt9lqbY2n2TuevcAdcF4IAFeik7uC6NwGCqMvljwfDmPfOwjKh05urAyd3LN3rWxfRDreWe5qo548ZGQ5yubiUFB3GUsO5Bx7SIHSYDQ5sAI8JwHgEzq5KySEEOjcBgqlI5q9a7TaB3Q0AED+hRBCs/Xo6OJdq7gFbhGR8Tjb9s4ALMt8gpWYHlDgBgrAZHs8yd5vNtu7IYTUOw6Au9lstncn0+wdZ5DAkn3xnPSOAgDeKHJXQAghbbTa++NJ9p4XS6CAOOQBgNybjSZ/Z2Zb3lmWQvVX7wjAfbGeCSg2FdkbT7N3jGYFiqURQqfRbDOaHFgxFdljhDmAqmNceYmFENK/JtmLRGWHl0qgJFSiiL0cnp0dekdBsTGuHCtTsXHlZRhNfhVGlqOoQghhMrX90lw6ASCiEjdqyRNGswL5ttls76rInncOoHIYYQ6goujkLqlGq7U9nmbcmgTKxiSI6cFm89ERI8wBwM98Uk4ZRpNfZTLJdrwzALcRQkjno1EpcAMlYxLGk+w9q5yAfPqye9s7C1BJJtvjaXZCVzeAqqHIXTLsmwOqQcW22L8DAD42W62tyTR7LyY73llWyUR/8c4ALKrRam1Pptl7LvkCJcchPpA7zXZ4IZPsnZT04idQGLPGmEbz0QkXwgBUBePKSyKEkI6n2W7ZD1sBXIIR5rgDxpVjZUo8rjyEEMYTO6jUnx1LHg+Hse8dA7jKxcoA263Un0sAc/2NevKU0ayAj0q+GwPFMcpMXv6f4ekr7yAAsEp0cpdAsx1eVKGbCMAV5jc1Gd0HACsze996V7VDPNVsyzsDcJmvVwZU688lgE86TLcCfMwmG1Xu3RgokDRR2eesEEDZ0cldYI0QOjKxfV4oAXxCVzcWRCc3VqZkndyV71Ap2f+eKIfNVmsrET1gLDmAT1TiRi15Qlc3sFpMkgQKiLNCACVGJ3cBzbsWLvbdVPTAFcDl6OoGgKWpavf2V0xCsxm63jEAkYtLJ43moxM1PaLADeArJoGubmC1Li5/ZicUuIGC+XxWuB9CSL3jAMAyUeQumGYzdMfT7B0vlACuZbI9nmYnjVZr2zsKABTNvJBmWfaKQpqICSPL4Y9LJwAWoSJ7jVb7PRd+geX6PJ5cOt5ZANyRyc54mr3jGQmgTChyF8RXO+dMgnceAAVAVzcA3BqFtEs98w6A6uLSCYBbo6sbWKrNZnuXKSpASVw8I9/9o9He8Y4CAMvATu4CaDZD1zQ7oLgN4M5UolryfDCIPe8oyAd2cmNlCrrDufK7t2+gkjzhGYJ122y2d1VkzzsHgAJjVzdwZyGEdDyxI96PgZJSebVRS17GGEfeUQDgrujkzjG6twEsjUkwyU7oZgCA730ev8gB3lUYWY51uujebr+jwA3g3uhYA+4khBDGvB8D5cb4cgAlQJE7p9i9DWAV2FEHAJ/NLxQyfnEhz0IIqXcIlN/nlQHs/ASwNGmiss8aJ2AxzWboTi7OJIN3FgArZhLG0+xks9Xa8o4CAHdBkTtn6N4GsHJ0MwCANELocKHwVtLJhKIjVofd2wBWzmR7PM1OKHQDV2u2wwuT7IRnMVAhJkFNj5j+CKCIKHLnCIetANZo3s2wT2cegKpptsMLmdCdclsmxqEHVqLRDs9YGQBgLS4u/L7nIB/43mazvWtZ9so7BwAfs+mPnBMCKBSK3DnRbIcXOqV7G8CasX8HQIWEENJ5p6h3lmKyDgceWKb5FCvJskM6xgCs0+wgn/HlwMxmo32gInveOQA445wQQMFQ5HYWQkibrUdHjOUD4GY2vrzRam17RwGAVWk2Q3dMp+h9pdPpdMs7BMqBKVYA3DG+HJhdAm2/U5Vt7ywAcmK2p5vnI4AioMjtaH7YamZb3lkAVF4qpgeM7QNQRvPdgkzMub/MkmfeGVB8TLECkBuzC7//aLR3vKMA6xZCCONJdiIiHe8sAHJm9nzcbLW2vKMAwHUocjvhsBVAHqnIXqPZZiwRgFIIIaSbjfYB48mXybqMLMddfflnkilWAHIkTVT2ufCLKgkhhPGUAjeAa6VqesRFMAB5RpF7zb4cT+6dBQCu0GEsEYCimx3cMXpxBcbjbNs7A4qHP5MA8o4Lv6iKTwVuGm8ALICLYADyjCL3Gs33zjGeHEDuMbYPQIFttlpbk4tdv8E7Symp/uodAcXSaIdn/JkEUBBc+EWpUeAGcBcqskehG0AeUeRek0Y7PGPvHICCYWwfgMLZbLZ31fSIUcirxMhyLK7Rau9Llh3yZxJAYbCHFCVFgRvAfajIXqPVPvDOAQBfosi9BhzsACiy2UvsPgUNAHk23/WrInveWapgMsl2vDMg30IIodF8dCImO95ZAOAOUjU94sIvyoICN4ClMNmm0A0gTyhyr1AIIeVgB0ApmOyMJ4ztA5BPIYQwnmQn7PpdHxP9xTsD8mu2pulExLreWQDgPuYXfr1zAPdBgRvAUplsN5rtdzTDAMgDitwrMnuBfMfBDoASYT8dgNz5XEyTjneWarFusxm63imQP6xpAlA6JjuN5qMTDvNRRBS4AaxIZ9YMk3oHAVBtFLlXoNkM3ck0e8cLJIDSMQnjaXbSaISOdxQAoJjmLet6J0C+bDbbu6xpAlBO1h1Ps3dc+EWRhBDS8SQ74l0ZwIpQ6AbgjiL3kjXb4YVJdsLBDoDSMgmi2btGOzzzjgKguprt8IJimi9T4TkAEbk4RN9stA9UZM87CwCszOzCL4VuFMVkagfCtCMAq0WhG4AritxL1Gi19y3LXnnnAIC1yLLDzWZ71zsGgOrZbLZ3eefKAZPAyHKEEMJ4kp2oyrZ3FgBYOZMwnmTvmGyFvNtstnfNbMs7B4BKoNANwA1F7iUIIaTN1qMjMdnxzgIA66QiexS6AaxTo9Xep1s0P0yyLe8M8PNpzyddYgCqJRXNTphshbzabLZ3eV8GsGadvyZ24B0CQPVQ5L6neecCtyMBVBWFbgDrstloH3CpMHc44K+oRgidyTR7x55PABWVSpYd/qPR3vEOAnxps9XaosANwIOKbTVabQrdANaKIvc90LkAABdUZI8XWQCrEkJIG81HjEPOp5SR5dXTaIdnOs1OzCT1zgIAnhKVfS78Ii9CCCER5XM5AD8m241We987BoDqoMh9R40QOuNpdkLnAgDMXLzI8oEawFKFENLxJDsRsa53FlyOkeXV0myHF5JlhxS4AeACk62QB/NGHJ7PANyZ7PBcBLAuFLnvoNkMXaXADQDfM9luNNvvQgipdxQAxfe5wM3UnJx7xs/9athstncty1555wCAvKHQDW/jiR1wTgkgL3guAlgXity31GiHZybcjASAa3TGk+yEggeA+6DAXSjpZML/TmW32WzvsuMTAK7GgT68XPz/jqlHAPJFRfYa7fDMOweAcqPIfQvz0XzeOQCgACh0A7gzCtzFY2Ic6pfYZqN9QIEbAG5GoRvrttlqbfGMBpBbWfaq0Qgd7xgAyosi94IYzQcAt0ahG8CtUeAuKuvw876cNhvtA1XZ9s4BAEVBoRvrEkIIKrrvnQMArpGKZichhOAdBEA5UeReAKP5AODOKHQDuJXxxI6EAncRpeNxtu0dAssTQkgbzUcnFLgB4PYodGMdxpPsiD3cAAogHU85GwSwGhS5b0CBGwDujUI3gIVsNtoH7BMsMNVfvSNgOT5PVODPIwDcFYVurNLs/1sd7xwAsBCTMLvQDgBLRZH7GhS4AWBpKHQDuNZms71Lx2jRWZef88XHygAAWB4K3ViFizHlnFcCKBrrNlptViwAWCqK3FegwA0AS9cZTzNeZgF8h/eu8mBkebFR4AaA5aPQjWUbT7MT7wwAcCcmO/9otHe8YwAoD4rcl+CgFQBWxGS70WofeMcAkB/NdnjBe1eJMLK8sChwA8DqUOjGsmw227vs4QZQZInKfqMROt45AJQDRe5vUOAGgBW7KHTT0Q1AGiF0LMteeefAMjGyvIgocAPA6qnIHt1ruA/GlAMojSQ7CiEE7xgAio8i9xcocAPAmpjs0MkAVFsIIcg0O/LOgeWbTLId7wxYHAVuAFifRGW/0Q7PvHOgmBhTDqA0TMJ4Ykx6BHBvFLlnKHADwHoxsg+otvE0O2HUYjmZ6C/eGbA4CtwAsGZZdthshq53DBQLY8oBlI91ORcEcF8UuYUCNwB4YWQfUE2NVnufQ7oysy6H98Ww2WgfCAVuAFg7k+yIfaRYFGPKAZSViuzx2RHAfVS+yE2BGwB8MbIPqJZmO7wQkx3vHFi1rOudANfbbLQPVGXbOwcAVFTKPlIsajzN6HQEUFqm2QHPQwB3Vekid6MdnlHgBoAcyLJXdDIA5RdCCGLZnncOrJ6JvPDOgKttNtu7FLgBwJlJGE+zEw72cZ1Gq7UtxjMbQImxnxvAPVS2yL3Zam1Jlh165wAAiAidDEAljKfZiZmk3jmwFilj5/KJSVYAkCMmYTzJjkIIqXcU5JXSxQ2gAqzLOkMAd1HJIncjhE4iyu0gAMgTOhmAUmMPd/WYZFveGfA1CtwAkEud8TTb9w6B/Jl1cQfvHACwDonKPlMeAdxW5YrcIYQg0+yILiIAyCE6GYBSajZDlz3clfTMOwA+a7bDCwrcAJBTJtuNVptCNz65uPxNFzeAikk4EwRwO5UqcocQwnianXALEgByjU4GoERCCKlpxgSdamJkeU40m6FrWfbKOwcA4BomO4xqxdxfk+wZ55cAKudiyiMXfAAsrDJF7hBCSoEbAArCZHuz2ealFiiB8TTb5f2rukwzurmdhRCCaHbknQMAcLNEZZ8LYgghBFXZ9s4BAC5MdngWAlhUZYrc4wkFbgAoEhXZa7QDxRGgwEIIgTHlFWeyxbg5P/NJVqxqAoDiMMmOLkZVo6q4JAqg6kyzAz5HAlhEJYrcs71GHe8cAIBbyrJXjUboeMcAcDfjaXbinQHu0smE93APTLICgMJKx9PshMP9appdEt32zgEArhhbDmBBpS9ybzbbu3QQAUBhpZLQyQAUUaPV2qa4BhERE+NwwsF4Ykf8GQSAgjIJ44mxaqKCKOoAwAxjywEsoNRF7mY7vFCRPe8cAIB7MAnjSXZEJwNQHBd/XpUDOsxYh5/h63Uxycq63jkAAPdh3dlkQlTE7HJ31zkGAOSGScZzEMC1SlvkboTQsSx75Z0DALAUHW60A8Xx1yR7QQcpvpCOx9m2d4iqYJIVAJSIyc4/Gu0d7xhYj3GWbfEODQBf6TSb7T3vEADyq5RF7hBCkGnGWCcAKBMOeIBiMElV2SOIb6j+6h2hCjZbrS0mWQFAuSQq+41G6HjnwBqYvPCOAAB5YyIvWGMI4CqlK3KHENLxNDvh5iMAlE+iss8+HiD3Ut7D8D3rMrJ8tUIIIRE98M4BAFiBJDvigL/cGq3WNu/QAHCpdDwxPucAuFTpitzjabbLSyEAlJdpdsABDwAUDyPLVyeEEMbT7MRMUu8sAIAVMAkc8Jedsp4LAK5kXZpeAFymVEVu9s8BQAVwwAMAxcTI8pWZTG2fi74AUHbWbbTa+94psHzNZujyHAeA65lmnAUC+I56B1iWzVZrS03Zw41SUdWRZTaa/XW8+G+L839vJh9u9/XkkYiIiaYy6/Qxs6CJpmaWLiU0sC4qr4Znp795xyiqRvPRiYh1vXMAqJaNevJTjDF65yiTzWZ7lz3cKJv55yBVHYnISFRGKhefi0T4HIRqM7Wn/zo7O/bOgeVptNoHYrLtnQMlZBLnz9L5eeK3z1Czz+eMIiJSq6WaZemX/+jTc9Q0zP5RKiqBZyjWTUVeDgane945AORHKYrc8/F83HpEUXw6tEm0r2IjM/lgZjFJaqOsJnFDZORxABxCSMciQSeSmk2DqgYTSVX0ZxFJTayz7kzAdTjguTuK3AA8cCixXBf7O9nDjQKZHbarWj8z+Y8kSZTpdKRai/W6RBERp89BYSySfvk5SFUemWkwsyDKWQNyZbRRTx5zaawcQghhPMnee+dAQZlETbRvZh8kSWJiEmfnijHGOFpHhBBCmEwkqEqaqQTJsqCiP/P8xIqMZhenR95BAORD3TvAMlDgRm6ZxCSR3ryILRu1/jpfNG9rlqt/3a9phNDRiaSWSGf+4ioqHW5vwoOaHoQQ+hzwAEAxmOgv3hnKIoQQJtNs37yDAN9Q1dFFMdv6mSb/lOl0VIDPQfGmX9MIoZNMJZhlHVH9WUwCl4DhJB1PsiMReewdBPc3nk67JelBwqrNzhgzTf4pifTy8lydPUPjZf8uhJBOJtIxlSCWdThDxH2paH8i0hGRnnMUADlR+LeoRqu9zx5ueJsd5PRN7J9i1peNWn8YY9871zrND30yy7q8tGK9tDccfHjinaJo6OQG4EUleTIYxJ53jiILIaTjafaOi75wN+sgE7N/qib9Wk0qd/mw2QxdUwkiWVdNf6bwjbVhfVMpNJvtd3ZRsAG+oqJ9E/s90aRXq0kvDwXtZWmE0JGpdFTsVxPpiFnwzoT8ujh3t9ciSY/PkQC+Vegid7MdXliWvfLOgQoyiaLyVsz6Gxu1XtUOchbVbIauJdJRs19EpEvRGyvDAc+tUeQG4IWR5ffHRV94+PJi7+zAvXIF7UXMu9ZEsq6I/mK8b2GFuDhWbCGEzniSvfPOgXz49Jy17M3GRu24TEXtm3xV9Dbb8s4Df6o6MrM3KskxzzkA1ylskXs2nu+dmaTeWVABs6J2GW9PrlMjhI5k0tXMfuWwB8vGAc/tUOQG4Gg0HJw+9A5RVFz0xTqpaE/EfhdJevW69PkcdDfNZuiaZFsq+jOfg7Bk7OcusEarfSAm29454Gde2BbRlzxnP2u1wlYm2ZaI/kKXd7WoaC/T7PUPtRrn7wAWUsgiN+P5sGqqOlKx4yyz36t2e3KdLkb7Zdu8tGIpVOJGLXnMn9fFUOQG4ImLSXfDRV+s3Oxyr0pyzGH7avw9hFCbSlfFfhWmXWEpWN9UVI1W+z1nm9Wkoj1L9O1GIoc8a6/36ezQ5Jl3FqwGfx4A3Echi9yM58MqMAbF17y7QVR/peCNuzLR438NPjz1zlEEFLkBOHs9HJzueIcoEi76YlXm3dpWT46HMfa981QN3WpYhszkt/8zPH3lnQOLm52BnHjnwPqo6sjEjtWSN5w73t7Fu7BsqdkLE+t458E9mURVeVOvJ4dMIwFwH4UrcjdarW0xPfDOgXK4GAtkr0WSHi+Y+UGHN+6DA57FNNphJ7HsZ+8c95GJdvkZARQWI8tviYu+WCY6ZvLpU8GbbjXc3kgseTIcclGlKBhVXh3zs8d6PXnFM3c5LnZ4Zzs8L4uFBjMAq1CoIncIIYyn2QndC7gPHqjFwkEP7oC9dBXRaLUP+dkAFBcjyxfHRV8sBR0zhfFFt9ozdnjjFvob9eQJRbRiYFR5+VHcXr2/hxDqk2zHmAqZW/OVoMYEAwArUqgid6PZficiHe8cKKaLMXz6kt1yxTTfXSdiu7y44mbspasCitxAwakcDs9On3vHyDsu+uI+uOBbfBefg7I9plxhISqvhmenv3nHwPVCCJ3xJHvnnQOrQXF7/WbF7m1TfcazMh+YGgRgXQpT5N5stndVZM87B4qFF8tyajZDV9RemNmWdxbkF2PLy48iN1B4o4168hPvaNdrNB+dCJ2cuCUOFsup0QrbXPrFTZiUkn+NdtiRLNv3zoHlU9XjSU1/+8jEFBfzYreovjCz1DtP1fD+CcBDIYrcIYQwnmTvvXOgOFS0l2n2+l9nZ8feWbA6n7oaKHLhcowtLzmK3EDxmdpT3teuxkVf3NZ8ehUFrnJrNkPXNNvmPQiXUokbteQxBYb84gJbCalGNX3O8zcfOC9cn3mDmUjS4///ADwUosjNnhosikOdamIsEa7G2PIyo8gNlAE/p6/CRV8siulV1cUhPq7E2PLcCiGk40l27p0DS/V6o57s8QzOn4vzQjsysY53ljJhHQ6APMl9kbvRau+LyY53DuScyuG0lrxkHFC1hRDS8VS2GOGHLzG2vLwocgOlwMjyK3DRFzehuI05it24DGPL86nVam1lpkfeObAEdG8XBus+7u/ivVP6IvqyXpc+754A8iLXRe5mM3RNshPvHMgnDnVwnUY77IjZC15gIYwtLy2K3EBJmPw25DLSVxhTjuvwOQhXodiNrzC2PJcarfaBmGx758D9qOpxvabP+fNVHDwj74Y92wDyLrdF7ouOzOwd3Qu4FJ3bWMCnMeYiu95Z4I1xuGVEkRsoC35Gf4kx5bgKxW0sioN8zKnIy8HgdM87Bz5jUkvx8eeq2OjqXkhfRd7yzgmgCHJb5GZMOS6jor1JXZ9T3MZtcMgDEcaWlxFFbqA8NurJQw5QLnD4jW9R3MZdzXaRHphY1zsLHFnyeDiMfe8Y4CJbGSSaPD87i4feOXA/fw8h1CZ2JOzq/oQ92wCKKvEOcJlGCB0K3PiSivYu9kl9eEKBG7f1McY4PDvdntaTn1T12DsPfCQquyGE1DsHAOB743G27Z0hDzab7V0K3PiKyuGkpo8Hg9M9Cty4rY8xxsHgwxPR5LmoRu88cKK27x0BF6bTacc7A+5GVUcqyRMK3OXwMcY4HHx4rCIvvbN4UtVRonKokjwZnH14OByc7lDgBlA0uSxyyzQ78o6AfFDVkWjyfDD48ISHLO7rY4xxcPbhKYc8lZX+NbED7xAAgEuo/uodwVsIIbCHG3PzS77Ds1OmWOHehmfxcHj24ScVeamqI+88WDfr/qPR3vFOAREz7XpnwO2p6shqyrlkCQ0Gp3uJJk+r9mxU0Z6YPa/X9Kezs9Pn/H8bQJHlblz5ZrO9y+EORC523DCSD6vUbLb32NddPRdTIXiBLwPGlQPlslFPfooVLuY1mo/eMTIRqjqyzF4OWbGCFWGVU2WNZs/ZkXeQKms22+9MpOOdA7djmjz911k89s6B1bl4NtpJmfd0q2jPEn27kcghzwIAZZKrIje7aSAye+jW9bdhZGcUVq8KL7L4hkrcqCWPeakvPorcwBqYxFlnw0jVoohIZvIfFRlZkoxkOh19+ctVa/GyL6MqaZZN00//oFZLNcvSi28haaLyN6slbwaxmpeQGq3WtpgybQSvN+oJY8mxFo1W2BaxXT4HVYeJHv9r8OGpd44qazTb5p0Bt2TyGxfPqqGMe7pVdSRmr82S4+GQc3YA5ZSrIjfdC9VG1wI8NdphR812zSz1zoLVU5GXg8HpnncO3A9FbuCeZgVsVeubyQczi0lSG9Vq0heREYW29QghhPE0O2EXd4WpRjVlVCTWLoSQTibZnom88M6C9WCqlZ9mM3RNshPvHFgc5wbV1Gi0D0WLe86gqiMze6OSHPPzHkAV5KbITfdCtalob1JX9s3B1ezW5oGIdb2zYOVGG/XkcZXH4pYBRW5gQSZRE+2b2Qcx68tGrb8hEili50Oj1T4Qk23vHHBD9zbcNZuha2oHdHVXgEocnp3+5B2jihrtsCNZtu+dA4vS/nDw4bF3Cvgo2nrDi45t6Yvoy3pd+rxXAqiSuncAkU/dC4V5cGB55t3bg+GHV95ZgNkliyd8+KyEdDyxAxF54h0EAJbKJCaJ9DJN/qmZ9DnkyLdWK2xllm1754ADureRI4NB7IUQHk8mRld32ZmEZrO9R3eqA8t+9o6ABanGaU0Z7V9hg8HpXrPZlrwXuud7tuvs2QZQYbno5KZ7oZro3kaesau7GhjXV2x0cgMiKto3sd8TTXq1mvQ43CiWRqv9njHllUT3NnKLXd2VMNqoJz/xM2i9Gs1HJ0yNKwhNng/P4qF3DPjLY0e3ivZE7Pd6PXnFz3EAyEGRO4QQxpPsvXcOrN3r4eB0xzsEcJM8vtBiiRjXV2gUuVFJJlFU3lLULr7NZntXRfa8c2B9VHWUiT7/11k89s4CXOfvIYT61PbNbMs7C1ZE5dXw7PQ37xhV0mw9Ojez1DsHbtQfDk4ZU45P8nAuyJ5tALiae5Gb7oWKYSwfCqjVCluZ2D7dDOWUmfz2f4anr7xz4PYocqMK5vvVLNG3G4kcRybglMJsXdMJn4OqgylWKKI8HOxjdZhqtT4hhM54kr3zzoGbTevJTzyr8S2P5yGFbQBYTOL5zRut1jYHO9Whor1pTfkQhcI5O4vH05o+EdG+dxYsX6KyG0JIvXMAwJyqjhKVQ5XkSb2mPw0GH54MT+MrCtzlMZ5mu3wOqpTXg8GHJxyao2gGg9M9qSePRTV6Z8HymRgXGNZkMpHUOwMWoHLIsxqXGQxO98TkzTq+l4r2xOx5vaY/DQenO5yjA8D13Dq5QwjpeJq943CnGlTk5WBwuuedA7gvuhnKiZ9RxUQnN8pEVUcqdmyWvKnXpc8Y8vJiXVN1XPy51t/O2OuJgvt7CKE2sSMR63hnwXLRzb0ejXbYkSzb986B69HFjZs0mo9ORKy77K+ror3Z5K5DPgcCwO3Uvb7xX5PshQoF7rLjYAdlMxic7jXaYcQH1HIxkRchhEO6JAGsm4r2zLI39XpyHOOHkXcerN54YkfeGbAGqnFSU7q3UQqz/x8/5sJv+ZhmByLyk3eOstMsC+YdAtejixsL2Kjr0/FU3i1lnaFJVJU39XrCWRQA3IPLuPIQQlCRPY/vjTW6ONh5TIEbZTM8ja8Y21c66XiacWAHYC0uLgHKy4168nAw+PBkODzjxn5FNFqtbTohy09Fexs1fcxhOcpmMDjdkyT5zTsHlsgk/KPR3vGOUXYm+rN3BlxPLVnLKGoUW4xxNK3pk7ueB6rqSEReqyRPhsPTnwaD0z0K3ABwPy7jyhut9oGYbHt8b6yL9qd1fcrBDsrs7yGE2tROlnKDE7nAuL5iYVw5ikZFeyL6kp8z1dVotd+zrqn0Xg8HpzveIYBVaoTQkakd8TmoNEYb9eQnLtytTrPZfmciHe8cuIJqHJ59YKIBFtZshq5JdrLIr1XVkZj0RPQ1nwMBYPnW3skdQggUuEvO5M1GndF8KL+PMcaNmj5W1WPvLFgOE6ObG8BSfdu1zcFGdTVarW0K3CVn8hsFblTBMMb+fTrZkDvpZJLteIcoMwrceacvvROgWAaD2LtpsomK9iRJfqvX9KfB4MNTPgcCwGqsvZO72Xp0ZGZb6/6+WA8VeTkYnO555wDWrdlsvzKRF945cH90cxcHndzIs4sb+/a6Xk9e0RmFEEIYT7MTitzldHGZRX9jTROqhslWpUI394qEENLxJDv3zoGrTevJTzTq4C4ajfah6OcziYvJXfY7nwEBYH3q6/xmzWbommVb6/yeWB8K3KiyweB0p9lsj0yETuCCm3Vz97xzACgmFe2Z6psBxS584a9J9kyFAncZqerIavpkEGPfOwuwbh9jjCGEx+OJnIhYxzsP7mXezb3nnKOMgncAXEf7FLhxVxsbyc5kYj+L2FuRpEfDBACs31o7udlBV16JJs/pXABEms32HoXu4qObuxjo5EaesG8bVwkhhPEke++dAyugGqc11jQBIt93s6GQ6OZegdvs7oWL16waAQCguNa2k5sddOWkqiMK3MBng8Hpnoqwz6ng2M0NYGGq8eJiDPu2cbnxNOOZUkYUuIGvDIen22LyxjsH7oXd3CtgNg3eGXA1leTYOwMAALi7tRW5RZTDnZKZj+ajwA18jUJ3GVi32Qxd7xQAckw1iibPh2cffqK4jauEEIKYbHvnwJJR4AYuRaG7+EzkRQgh9c5RJqoavDPgavW69L0zAACAu1tLkZsu7vKZF7iH7J4DLkWhu/jo5gZwGVUdqcjLjZo+HnLRDzegi7uEKHAD16LQXXh0cy9f6h0AV9E+4/kBACi2NXVy08VdJhS4gcVQ6C46urkBfOd1vaY/DQanexyI4SZ0cZcQBW5gIRS6i41u7uUypcidVyb2wTsDAAC4n5UXueniLhcK3MDtUOguNrq5AYiIqGhP6snj4eB0h+I2FkUXd8lQ4AZuZTg83RbRvncO3And3Eukon/zzoDLJcKocgAAim4Nndx0cZeK6VMK3MDtzArdr71z4C7o5gYqTTWaJk8Hgw9c8MOt0MVdMhS4gTvZqOsTCt3FRDf38pjRyZ1Xqha9MwAAgPtZaZGbLu5ySTR5PhjEnncOoIgGg9MdVT32zoHbo5sbqKzXGzV9/K+zeOwdBMVDF3eJUOAG7izGOJrW9amoRu8suDW6uVF6ZrXonQEAANzPiju56eIuCxV5eXYWD71zAEVWr+lzOhmKiG5uoFq0r5I8YTQ57oou7vJQ1REFbuB+PsYYpzV9oqoj7yy4Hbq5l8QseEfA5cxk5J0BAADcz8qK3K1Wa4su7nJQkZeDwemedw6g6OhkKC66uYFqUJGXw8GHx0yuwX3QxV0eRoEbWIqPMUYxfeqdA7dGNzdKbWODIjcAAEW3siJ3ZsmLVX1trNVrCtzA8nyMMUpNn9LJUDTWDSEE7xQAVkX7Uk8e886D+5o9K7rOMbAMJr8NY+x7xwDKYjCIPUmS37xz4HZMhLM9lNnIOwAAALiflRS5QwgdEeuu4mtjfVS0Nxyc7njnAMpmGGPfRDngKZgxXQxAWb3eqOsTillYhvF02mWaVfGpyMvh8PSVdw6gbIan8ZWKvPbOgVtJN1utLe8Qhaa8F+QVq4kAACi+lRS5x9OMm55FpxondX3uHQMoq+FZPOSAp3CesZMOKBHVyO5tLJ8yqrz4mGQFrNBgcLojoj3vHFicMqkRAAAAObX0IncIIYjJ9rK/LtZINU7ZPwesHAc8hcNOOqAkVPV4o6bs3sZSNVqtbbq4C041MskKWL1pXZ+LavTOgUVZt9kMXe8UAAAAwLeWXuQeTzO6FwrORH+jwA2sBwc8xcJOOqAETH4bnH14Svc2lo8u7kKbXfT1jgFUwccYoxqT44rExHjGoXSY1AYAQPEttcgdQggi0l3m18R6qcjLf53FY+8cQFVwwFM4KV0MQEHNx5OzZxcr0GwGdnEXXU2fctEXWJ/BIPYkSX7zzoFFWZeCIEoo9Q4AAADuZ6lF7vF0yuFOganqMfvngPUbDGKP/dzFQRcDUETan9b0CePJsSqm2TPvDLg7FXk5jLHvnQOomuFpfMX6puJgdRPKZjymyA0AQNEteVw5I/oKSzVOasotasAJ+7mLhJ10QKGYvNmo6xM6NLEqIYQgJtveOXBHKodc9AX8TOv6XFVH3jlwMxN5QTc3ysQSGrUAACi6pRW5GdFXbNMah7+ANw54isMk2/LOAOBmKvJyODzdZv82Vmk8zbjoW1SqcVpLXnrHAKrsY4xRhfVNBZH+NZ12vUMAy6JZFrwzAACA+1leJ7fai6V9LayVirykwA34+xhjNFUOWovhGV0MQM6Z/EZ3Jtak6x0Ad8NFXyAfzs7isaoee+fAzdQSzv5uiYvsOZbIz94RAADA/SylyB1CCGa2tYyvhfVS0R4HwEB+sJeuMNLxONv2DgHgcokmz4fD01feOVB+jVZrm2lWxcRFXyBf6jWmWhWDdRuN0PFOUSSW2cg7A65g2vGOAAAA7mcpRW5G9BWUapzUGQsG5A1jywtC9VfvCAC+pqojleTJ2Vk89M6CirDkmXcE3IFq5KIvkC8xxhFjy4tBldVNKAvrMKENAIBiW9a48u6Svg7WSuleAHKIseVFYd1mM3S9UwC4oKojq+mTwSD2vLOgGkIIQcS63jlwO6o6mtb0iXcOAN87O4vHTLXKPxN5QWEQZTGZSMc7AwAAuLt7F7lbrdYWI/oKSOVwSJcTkFuzseV97xy4ngldDEAezAvcwxj73llQHUyzKibLjIu+QI4x1aoQUgqDt6AavSPganymBwCg2O5d5DZhRF/hqMZpLaFLFMg5Ff3NOwNu9IwuBsBfJvqcAjccdL0D4HZUtDccnr7yzgHgaky1KgYT46IXyoJzbQAACuxeRe4QQjCzrSVlwdowphwogsEg9lTktXcOXIsuBsBZosnzf53FY+8cqJZGq7XNNKvimdTZ9wsUAVOtisC6XPZdkNoH7wi4VsoaMgAAiuteRe7xdNpdUg6siYoeM6YcKI56PdljXF++0cUA+FGRl2e818CBSvKrdwbcjopw0RcoEKZa5d9kku14ZwCWgc/0AAAU1z3HlSsvAQUzqfNBESiSGONIzOjmzjW6GAAPKvJyMDjd886B6mGaVQGpRn5eAMUyGMSeiPa8c+BqJvqLd4YiUJPonQE3sW4IIXinAAAAt3fnIncIocOIvmKhewEopsHgdE9Uo3cOXG08zra9MwCVYvKGghW8MM2qgDJ96h0BwO1NWTGQc9ZlzPPNLElG3hlws/E0o5ELAIACunORezzNXiwzCFaM7gWg0NQ44Mk1VcbWAuuiGjc2kh3vGKguNeVzUJGoHA6Hse8dA8DtfYwxqshL7xy4Ttb1TpB70+nIOwIWYLJNNzcAAMVzn3Hl3WWFwDooHwyBAmNcX94x3gxYC9U4remTGOPIOwqqKYQQTKTjnQOLUdXRtJbwOQgosHo9eaWqI+8cuJyJcPHrBqq16J0BixlP7MA7AwAAuJ07FbmbzdBlVHlxqGhveBYPvXMAuB/lskquTSaMLAdWTU2fs3oFniaTbMc7A27B7DU/M4BiizGOxOy1dw5cKWVk+fUmdXZyF4d1N1utLe8UAABgcXcqcptmz5YdBKszYY8VUAp0c+ebif7inQEoMxV5efFzEPBjKqynKArWNQGlQTd3vplkW94Z8uyByMg7AxanpgchhNQ7BwAAWMxdx5V3lxkCK6RySPcCUB50c+cZI8uBVVHRHsUqeAshdJhmVSS8MwFlQTd37tEIc40Y44hLGoWS/sXYcgAACuPWRW5GlRcLO+iAcqGbO98YWQ6sgGpkKg3ygJ/xBaIaWdcElAvd3LnGyPKbmEXvCFicim39o9He8c4BAABudusiN6PKC4QubqCU6ObOL0aWA6ugL3mfQR4wqrxIeFcCyoZu7nxjZPn1TOWf3hlwO4nKPpc3AADIv7uMK+8uOwRWgy5uoJzo5s4zRpYDS6VySDcm8oBR5YXS5+cGUE50c+caDTHXUGMvdxGZZEeNRuh45wAAAFe7VZGbUeUFQhc3UGp0c+fXeEwXA7AUqpELe8gLRpUXh0rym3cGAKtBN3euMbL8GmbW986AO0klyY64yA4AQH7dqsjNqPLi4FAYKDe6uXNMlXG2wFIwphy5wjqKAlDR3sU7EoCyops7z7Kud4K82tio9b0z4I5MwnianVDoBgAgn247rry7ihBYMrq4gWpQfeMdAZexbggh9U4BFBpjypEjIYRgIh3vHFgEk26AsosxjkzsrXcOfM+UkeXXiN4BcA8UugEAyK2Fi9zsoSsOuriBatioyTFdDPk0nU63vDMARaWqI95lkCfj6bTrnQELUI10cQPVoJYcemfAJUwCRcDLXYzap9BdaCZhPMnebbZaW95RAADAZwsXuScTdowWAl3cQGWwky6/pqZb3hmAwjJ7zbsMcsUSOtMKgS5uoCpY3ZRf4zFnh1fRRPveGXBvqZoebTbbu95BAADAhYWL3CbKHroCoPMJqJZ6PXnlnQHfU3a3AnejGgeD0z3vGMDcxfoJ63rnwA1UIysOgGpRLrbkk+qv3hFyy+yDdwQsh4rsNVrtfdaUAQDgb6Ei98W4IQ53co8ubqByYowjuhhyKW02Q9c7BFA8HFgjX6aMKi8IfnYAVTMYxB6rm/LIOhT+LqdqPe8MWCKTnfE0e8eIfgAAfC1U5GYPXTGoJW+8MwBYP7oY8smEUX3ALfXpxETeZEJHWu6pxo2aHHvHAOCA1U15lE4m0vEOkUfjWq3vnQFLdrGn+z3jywEA8LPguHJGleeearzYSwWgauhiyCuencBtqCS/eWcALtH1DoCbWO9isg2AqmF1Uz5x2fdyH2OMYhK9c2D5ZuPL39PVDQDA+i26k7u7yhBYBjo5gUqjiyGHGNUHLEzlkMt6yJsQQkdMgncOXG9aS/gcBFQUq5tySoUpKFdJ5HfvCFiRWVd3o9U+oNgNAMD63Fjk5nCnAFQj4z2BaqOLIZ+m0+mWdwagCChSIY/GGRd9805Fex9jjN45APhJVLnsmzcmgSLfFTTpe0fAiplsj6fZSaPV2vaOAgBAFdxY5OZwpwis550AgC+6GPIpY2Q5cDOVQ4pUyKXM6ETLuYziFlB5tZqwuimHptNp1ztDHm0k0vPOgDUwCWJ60Gi131PsBgBgtW4eV87hTu7R/QRAREQse+MdAd/pegcA8k4t4WcXcklVOt4ZcA3V+K+zeOwdA4CvGONIzHiXyBku+14uxtjnUkaFUOwGAGDlFtjJbd2Vp8CdMaIPwNzGRu2YD8w5w6g+4Foq2mMXN/Ko2QxdM0u9c+A6TLMCMJcceyfAN0y2vCPkWM87ANaMYjcAACtzbZG72QzdNeXAHZkqN5YBiMhFF4OJvfXOga8xqg+4GqOGkV9Z1zsBrsc0KwBzg0FkZHn+pFz2vZyp/u6dAU4odgMAsHQ3dHJzuJN30xo3QAF8ppYcemfA1xjVB1yBUcPIMeNnd64xzQrAdxhZnjvjcbblnSGPpokce2eAsy+K3ZvN9i4XQgAAuLtri9wc7uScyiGHOwC+VK8LO77yp+sdAMgnpQsTOcbKpjxjmhWA7zGyPHcS+dk7Qh59jDGKSfTOgRwwCSqyN55k7xut9gHFbgAAbu/aIreqdNaUA3dgkjCWGMBXGFmeQ+zlBi4z2qjRxYJ8YmVT/jHNCsC3GFmeS13vAHmlKnxmx9dMtil2AwBwe1cWuZvN0DWzdI1ZcDsjRnwCuAwjy/OHvdzAN1SOY4wj7xjAZSzhom+emchbplkBuBQjy/OFy77XYPIArjAvdjcfnbC3GwCAm11Z5OZwJ+eU7icAl2Nkef5kph3vDECeTGsJo8qRW2rGyqYcU6UwAOAq/HzIGy77Xo7JA7iZded7uxut1nYIIfVOBABAHl1Z5OZwJ9/UEm4oA7hUjHFkJn3vHPiS8kwFPtE+XZjIua53AFyNVQcArkLhMH+47HsNJg9gESZBTA/G0+wdo8wBAPje1Z3cYp015sDtjAaD2PMOASDHEmXHV65Yh5vXwIzqa+8IwFVCCB1WNuWXibxl1QGA65gYn4Nyhcu+V2PyAG7BJMxHmW82Hx01m6HrHQkAgDy4tMgdQghiEtacBYtiVDmAG2wkcuidAV+bTFgDAoiITGvS884AXGU6nQbvDLgao8oB3CiznncEfInLvldh8gDuSsW2TLKTL0aZB+9MAAB4ubTIPZ1OO2vOgVswSbiZDOBaMcaRCiPL88Qs63hnALyZyFtGlSPPzLTrnQFX45IMgJtsbNSOvTPga1z2vYYZE45wd/NR5pPsfaPVPqC7GwBQRZcWuTncybcfONwBsJjfvQPgC4n87B0B8EYXJvLORPlZnVMq2uOSDICbcNk3f7jse7VJPTn0zoCSMNk2yU4azfY7ursBAFVyeZGbw53cUtEee+gALIZiUs50vQMA3jZqrFxB3lnXOwEuZ8aeXQAL47JvnnDZ90oXl7e0550DpdKhuxsAUCWXFrlVGSWUVxzuAFhUvS59dnzliElgHx2qzETeclEPeRZC6HhnwHWSnncCAEXBZd+c6XoHyLNElZHlWI15dze7uwEAJfZdkTuE0DGz1CELFsLhDoDFxBhHZozqyxP20aHKGFWOvBtPpx3vDLiCahwOY987BoBi4LJvznDZ91q1mvT4/ytW6ovd3ZvNR0eNVmvbOxIAAMvyXZF7Op0GhxxYBIc7AG4rUaY/5Aj76FBljCpH3qlpxzsDrmI97wQAioPLvvkzHkvwzpBXMcaRmNHNjbVQsS0xPbjo7macOQCg+L4rchuHOznG4Q6A29GMw51cYR8dKkpFe4wqR96ZKD+jc8ok4dIegFtRMfZy50rW9U6QZ/V68so7AyrGJHw9zry9zzhzAEARfb+TWzncySsOdwDc1mAQGX2WL13vAIAHM+MdBrmnykqJvMpqXNoDcFusessVpZP7OjHGkai88c6BirooeO+MJ9n7RrP9jv3dAIAi+b7IbRbWHwOL4HAHwF0wqi9H2EeHyuKgGfkWQuiYWeqdA5fR/scYo3cKAMVSr/MZKF/0F+8EeaeWHHpnAESkM9/f3Wg+OqHgDQDIu6+K3CGE1IQOhnzicAfA3ajYP70z4DP20aFyVONwGPveMYDrTKfT4J0BV1Dre0cAUDwxxpEKhe78oKHmJoNB7IlozzsH8Jl1KXgDAPLuqyL3ZEKBO7c43AFwZ8mxdwJ8liTTjncGYL2s550AuImZdrwz4HKsbAJwD+zlzo+U4tjNVPSldwbgct8UvNvtHf5MAwDy4KsityUUufOKwx0Ad8WovnzJKKSgchIOmJF/qj97R8DlWNkE4K7MaBbIk7+mnDnehG5uFIN1JZP9zzu82/uNRuh4pwIAVNNXRW7NsuCUAzfgcAfAXcUYR2ISvXPgggnjylEt05r0vDMANzLGqOaSamRlE4C7mm7Uet4Z8BlnjouhmxsF0xGTHdHsXaPVft9otQ82W60t71AAgOr4upNb6GDIJQ53ANxXwqi+vFAVnrWoDt5hUBSqwTsCvmdm//TOAKC4PsYYVXXknQMzCZ+DFkE3NwrLJIjJtpoeNZpt22w+OmKPNwBg1b7u5BZLnXLgGhzuALg3TfreETBjdHKjOniHQRH8PYRgxuegPFJjEgSAe+t5B8AMa5sWNq3rc+8MwH2p2Na3e7wZaw4AWLZvOrnZj5NHHO4AuC/NWHmQJ9xkRlXwDoMiqE+4fJRXyiU9APdl9sE7AuZYDbKojzFGFXntnQNYnos93l+ONW82Q9c7FQCg+D4VuUPgJlVecbgD4L7qdYrcefLXlEtlqAbeYVAElvAzOa8uRrYCwN2pWs87Az5JQwipd4iiqNeTPcbto5RmY81NspNmq33+xVjz1DsaAKB4PhW5p9NpcMyBa1CcAnBfMcaRmETvHLigWRa8MwDrQIEKRcDP5HxS9pECWIJxrdb3zoDPxmOmpywqxjgy1ZfeOYBVMpP0i7Hm543moxP2eAMAbqM+/4tMa0Es88yCy43GEztqNB955wBQcKqWmnmngIiIKIc7KD8KVCgKE/1ZhAdk3phYp9F8dOKdA0DBTfj5nidJMu2I0MixqOFpfNVoPvpVxLreWYD1sK6YdseTTBrNdl9UemrJWy5PAwCu8qnIrVkWePXPpZSXWQDLQIE7P0wocqP8TOyf3hmARahYyiMyl1I+BwFAuZhp8M5QNCr60ngeopo6YtIxyXYarXYUkZ6Jvf3X2dmxcy4AQI58Gld+0cEAAABWTVV45qL8WJGAgjBhJzcAAOtgKowpvKXBIPZU5LV3DsDVbI+3mh41mm37Yo938I4GAPD1qcitYqljDgAAqsPo5Eb5qSZ97wzATUIIqXcGAACqQunkvpN6PdkT1eidA8iLL/Z4v280H5002u2dRiN0vHMBANbvi05uOhgAAFgXbhyj7Op19i0i/yYTPgMBALAupha8MxRRjHGkps+9cwD5ZF3JZF80e9dotd83Wu2DZjN0vVMBANYjEaGDAQCAdRuPJfXOAKyO9mOMI+8UwE1Up6l3BgAAKoOJVnfG2HJgAbOx5ibZSbPVPm+02gezseapdzQAwGokInQwAACwbkky7XhnAFZFRUbeGYBFZFoL3hkAAKgSJlrdHWPLgcWZSSom27Ox5ueN5qMT9ngDQPkkInQwAACwblmmqXcGYFVM7J/eGYBFaJYF7wwAAFQJE63uLsY4mtb0iaqOvLMAxWPdz3u82+8arfY+Y80BoPgSEToYAABYO2VUH0rMJHpHABai+sg7AgAAVcJEq/v5GGM01ZfeOYCC64jJjkl2Mt/jvdlqbXmHAgDc3kUnd5alzjkAAKgWlb95RwBWRTXpe2cAFmFGNxkAAOvERKv7G57GV+znBpZktsdbTY8azbZtNh8dMdYcAIqjLiJiKkHMOwoAABVi2vGOAKxKvU4nNwrCLIh6hwAAoEKYaLUU9XqyN57YLyLW8c4ClImKbYnp1niSSaP5qCeJvZVp0hsOY987GwDge4mIiBhj+gAAWCu11DsCsCoxxuidAVgIB+0AAKwXE62WIsY4mtb1Kfu5gVWyrmSyL5q9m481Z483AOTLxbhy4aAdAIC1MgorKCvteycAFhFCSL0zAABQNWoavDOUxccYo5g+9c4BVMJsrLlJdtJstc8brfbBbKx56h0NAKosEWEXHQAAHvgwhDJSkZF3BmBBwTsAAABVY2rBO0OZDAaxJ0nym3cOoErMJBWTbTE9GE+y80bz0Ql7vAHAx8W4csb0AQDgIfUOACybqUXvDMAiJhN+BgMAgOIbnsZXKvLSOwdQXdadFbzfN5rtd41We5+x5gCwHgldZAAA+JhMuGSG8lGTD94ZgEWoTlPvDAAAVA5rm1ZiMDjdE5M33jkASEdMdkyyk/ke781Wa8s7FACUVfInXWQAALhQnQbvDMCymTGuHMWQZXwOAgDAAyN9V2M4PN0W0b53DgAzsz3eanrUaLZts/noiLHmALBc9fpEgnmnAAAAQClYkkTvDMAiVJXPQQAAoFQ26vpkPJV3Yuw+B/JGxbbEdGs8yaTRfNSTxN7KNOkNh7HvnQ0AiirxDgAAQFWZafDOACxbQic3iiP1DgAAQBWxtml1YoyjaU2fiGr0zgLgOtaVTPZFs3fzsebs8QaA20vMGJUKAACA5ajXJXpnABZhSpEbAAAPGc/glfoYY6TQDRTIbKz5l3u8KXgDwGISqdVS7xAAAFSRqTzyzgCswMg7ALAIFf2bdwYAAKqoJtPUO0PZUegGCuqbgvdms73LDm8AuFqiWZZ6hwAAAEA5xBhH3hmARZjRRQYAgIcs09Q7QxVQ6AYKziSoyN54kr1vNB+dNFqtbe9IAJA37OQGAMCJspMbZaOMKgcAAMD1lHHla0OhGygL64rpwXycOd3dAHAhMZXgHQIAAAAA1soseEcAAKCKTChyrxOFbqBEZuPMx5OM3d0AIHRyAwDgxpQCC8pFjYMzAAAA3EDlb94RqoZCN1BC893djDIHUGGJmD7yDgEAAAAAa8VEKwAAUCEUuoGy+nKUOcVuANVCJzcAAF6MMX0ol0zsP94ZAAAAkG9m8tA7Q1V9jDFu1PSxiPa9swBYMpNAsRtA1VDkBgDAT+odAFgmVTn3zgAAAIB8S0QZV+4oxjgaDj48VpHX3lkArADFbgAVkqhY6h0CAAAAANbl7yEE7wwAAACeBoPTHRV56Z0DwIrMi93N9rvA5x8AJZUYo1IBAACwBGrywTsDAAAA8s2YaJUbg8HpniTJb945AKxUZzzJ3jda7QOK3QDKhnHlAAA44gMGAAAAgEpRpkrmyfA0vpJ68lhUo3cWACtksj2eZO83m+1d7ygAsCwUuQEAAAAAAACgooYx9qc1fUKhGyg/FdljXzeAsqDIDQAAAKBS6hMJ3hkAAADy5GOMcXj24ScVee2dBcCKzfd1M8IcQMElohzwAAAAAAAAAEDVDQanO+zpBirCZHs8zU7o6gZQVHRyAwAAYClULXpnAAAAQM6ZpN4RcL3haXw1rSc/Mb4cqAC6ugEUGEVuAAAcTRiZCwAAAKBaUu8AuNnHGONGTR8zvhyoCLq6ARQQRW4AAAAAAAAAwFdijKPB4HRHNHlOVzdQAV93dafecQDgJhS5AQAAAAAAAACXGp7Fw2lNn4jKG+8sANbgoqv7HePLAeQdRW4AAAAAAAAAwJU+xhiHZ6fbdHUDFWESxpPs/WazvesdBQCuQpEbAAAAAAAAAHAjurqBalGRPcaXA8gritwAAAAAAAAAgIXQ1Q1UDOPLAeQURW4AAAAAAAAAwK3Mu7pV5LV3FgArdjG+/N1mq7XlHQUA5ihyAwDgqF6X6J0BAAAAANZG+QxUJh9jjIPB6c60nvykoj3vPABWKlXTI/Z0A8gLitwAAAAAAAAAgDu7KHZ/eMIIc6D8Znu6971zAABFbgAAAAAAAADAvQ3P4uHw7MNPFLuBkjPZaTTb70IIqXcUANWViDEiCAAARyPvAAAAAACwNqYj7whYvS/2db+k2A2UVmc8zd6FEIJ3EADVRCc3AACOYowj7wwAUDWTOhd9AQDwolz0rYzZvu69aU2fiMob7zwAVsAkjKfZCYVuAB4ocgMAAAAAAAAAVuJjjHF4dro9rSc/0dkNlBCFbgBOKHIDAOBn5B0AAAAAANYpE/uPdwb4+Lqzm53dQKmYhPEke9dohI53FADVQZEbAAAvSpEbAAAAQLWoyrl3Bvi66OyOh8OzDz9R7AZKJRXNTih0A1iXhJcIAACcmI68IwBAFT1gkgYAAH5M6OTGJ/Nit0rC3m6gHCh0A1gbOrkBAHCiFFkAwEWMceSdAQCAquJzEC4zGMTefG833d1A4VHoBrAWFLkBAAAAAAAAAO6+HGU+7+5WZQoaUECpaHYSQgjeQQCUVyJqH7xDAABQRaYWvTMAQGWZRO8IAABUkfI5CAuad3cPzj48FE2eq+qxdyYAt5KOpxS6AawOndwAAHhhFx0AAACAiplKbeSdAcUzPIuHg7MPTzfqyaeCNx3eQAGYBArdAFYlUWMPDgAAHthFBwAAAKBqEs4icQ8xxtG84D04+/BwPtKcHd5Ajn0udKfeUQCUS104YAcAwIVxuAMAflSjiAXvGAAAVA2fg7BMg0HsiUhPRKQRQkcy6Wpmz0ys45kLwDdMwnhiRyLyxDsKgPJILElG3iEAAKgiS5LonQEAqkqVA3YAADxsbPAMxmoMY+wPT+OrweDD42k9+Uk0ea6iPe9cAOas22i1971TACiPRKbTkXcIAACqiDF9AODHxP7jnQEAgCqKMUbvDCi/jzHG4Vk8HAw+PNmoJw8TTZ4y1hzIAZOdzWZ71zsGgHKoJ4mMMvOOAQBA9TCmDwAAAEDFjLwDoHpijCMROZ79R5rN0DXJtlT0F8aaA+unInubrdY//3V2duydBUCxJWa1kXcIAACqaGNDoncGAKgqNX4GAwCwdqwLQQ4MBrE3HJzufBprniS/MdYcWC81PQghBO8cAIotmdQ53AEAwMPsNjkAwIElycg7AwAAVaPGqGjky8cY42yP95NPe7xVj1V15J0NKLl0PM1OQgipdxAAxVX3DgAAQCUpl8wAwNV0OhJV7xQAAFRKJvYf7wzAVT5e7Is/nP3nYqy5Ztsi+ouYBbdgQFmZhPHEjkTkiXcUAMWUzB7eAABgnYxb4QDgKUkYlwoAwLqpcNkXxTEYxN7w7HR7ePbhJ6knjxlrDqyCdTeb7V3vFACKKRERYfwKAADrpUJxBQA81Wq16J0BAICq4XMQimoYY/+ysebeuYAyUJG9ZjN0vXMAKJ5ERMQyGznnAACgUkwtemcAgCr7k0N2AADWTvkchBL4GGMcnsXDwdmHpxv15GGiyVNReSPKznngrkyzA/ZzA7itRESEBzAAAOulJh+8MwBAlbG2CQCA9TNjkgrKJcY4OjuLx/Ox5irJExF5raJ972xAoZiEvyZ24B0DQLHMitzGQTsAAGtEBwMA+GNtEwAA62XGJBWU22AQe8PB6c5g8OHxp7Hm7PEGFqJiW/9otHe8cwAojoud3LxgAgCwVnQwAIA/1jYBALBew2Hse2cA1uXTWPPBhycb9eThfI83Fy2BqyUquyGE4J0DQDHURUQsSaJkmXcWAAAqgw4GAPCnifbNLHjnAACgIkbeAQAvMcaRiBzO/iPNZuiaZtsi+ovwPgp8KR1fjC1/4h0EQP5djCufTke+MQAAqBY6GADAn4n9xzsDAABVwY5i4LPBIPbme7ylnjyWJPmNsebAnHUZWw5gERfjypWRqQAArNHIOwAAQERNoncGAACqIuNyGXCpYYz94Wl8NRh8ePJpj7fqsXcuwNNsbHnqnQNAvtVFRCZ1ibWJdxQAAKqBDgYAyAczi6LqHQMAgEpQ4XIZcJOPMUb5Yqx5qxW2Msm2GGuOCkr/uhhb/tQ7CID8SkQ+PTwBAMAa0MEAAPmQJEzWAABgbZigAtza2Vk8no81V0meiMhrLs6jKlRsq9kMXe8cAPKr/umvTKKoBL8oAABUQyLS984AABAZ12r92iTzjgEAQCWoJn3vDECRDQaxJyI9EZG/hxBqU+mq2TMT63rmAlbJJNsXkcfeOQDkUzL/C1W6GAAAWAdVi94ZAAAiD4TPQAAArIsZz11gWT7GGIdn8XAw+PBko548FE2ei8obVR15ZwOWrPOPRnvHOwSAfPpU5DaVf3oGAQCgKsxq0TsDAEAkxjhidCoAAOsxHMa+dwagjGKMo+FZPByenW4Pzj48VEmeiMobUY3e2YBlSFR2Qwipdw4A+fO5k5vDHQAA1qJeZ1w5AOQFE60AAFgHdggD6zIYxN58j7fUk8eSJL+paM87F3AP6WSS7XiHAJA/nzu5jdGpAACswSjGOPIOAQC4wEQrAABWT1kRArgYxtgfnsZXg8GHJ9N68pNo8lxVjxlrjqIxkRd0cwP41qci98ZGre+YAwCASlA6GAAgV5hoBQDA6pkYl8oAZ5/2eJ99eMpYcxQQ3dwAvpN88dfRKwQAAFWRif3HOwMA4DMmWgEAsAZcKgNy58ux5irJExF5TcEbeUY3N4Bv1ed/EWMcNVuPRmaWOubB5UYq8to7BADg/lSSnncGAMBnGxu1/niSecfA5foq8tY7BADg/iYbybF3BgBXGwxiT0R6IrLTCKEjk2xbVH8Vs+AaDPjavJt7zzkHgJyof/V3F10MHY8guFZaryev2OEKAAAALF30DoCrqAwGH/a8UwAAAFTJMMa+iOwIBW/k0Kybm1oJABH5ely5mAr7cXLqr6l0vTMAAAAAZRNjHDFCNa+swzhCAAAAP8MY+8PB6c7w7MNPUk8es8MbOcBubgCffFXkFk36PjFwE7Ws650BAAAAKCNNtO+dAZebTJg0BgAAkAfDGPtf7fBWeaOqI+9cqB52cwOY+6rIndg0OuXAjfRn7wQAAABAKZl98I6Aq3DZFwAAIG8Gg9gbnp1uD84+PBRNnqtozzsTKoVubgAi8k2Re1yr9Z1y4EaM6gMAAABWwcz63hlwORP9xTsDAAAArjY8i4eDwYcn03ryk2jynHHmWAdTeeadAYC/r4rcH2OMjBjJrZRRfQAAAMDybWxw2Te/uOwLAABQBB9jjMOzePjlOHPvTCgxk9Bshq53DAC+ku/+iVlcfwwshlF9AAAAwApE7wC4Epd9AQAACmY+zpzubqySie16ZwDg67sit6n80yMIbsaoPgAAAGD5YowjMQrd+cVlXwAAgCKiuxurZV2mPgHV9n0ntyb99cfAYvihDQAAAKyCJtr3zoDLcdkXAACg+OjuxipMJtmOdwYAfr4rcmsmfYccWNBfU+l6ZwAAAADKxlR/986Aq3DZFwAAoCy+7O5ONHmqqsfemVBcpvLMOwMAP98Vuet1itx5psaoPgAAAGDZEptG7wy42nQ63fLOAAAAgOU6O4vHg7MPTy+6u+WNqo68M6FgTEKzGbreMQD4+K7IzT663ONmEgAAALBk41qt750BV8sYWQ4AAFBaF93dp9uTmj5mlDluyyTb8s4AwMf3O7kv/imj+vIr5WYSAAAAsFwfY4x0juSYyZZ3BAAAAKzWl6PMRZPnKtr3zoRCoDEQqKjLi9ya9NcbA7fDyHIAAABgBXreAXAlLvsCAABUyPAsHg4GHx6rJE/Y240b8FkBqKhLi9yasZc7z4xRfQAAAMDSmSoTrXKMMYQAAADVMxjE3pd7u73zIJ/4rABU06VF7nqdIne+WTeEkHqnAAAAAMqEy745p/KrdwQAAAD4mO/tptiNKzCyHKigS4vcMcaRCgc8eTYeZ9veGQAAAIAy4bJvzpkExhACAABUG8VuXIGR5UAFXb6T+wKj+vJMlS4GAAAAYIlijCMxid45cJ2s650AAAAA/r4sdqvIS1GN3pngjc8KQNVcWeQ2s/4ac+DWGFkOAAAALF3CZd88M2UMIQAAAD77GGMcDE73pjV9QrG72kz0F+8MANbryiL3dKPWW18M3MVkku14ZwAAAABKJbOedwRcg5HlAAAAuMR3xW5UEI2BQNVcWeT+GGNkVF++mQgjywEAAIAl4rJv/plkW94ZAAAAkE+fit3s7K6k6XS65Z0BwPpct5ObUX3516GLAQAAAFiejzFGVR1558C1ntGhAQAAgOt8ubObYnd1ZKYd7wwA1uf6Ijej+nKPLgYAAABguUzsrXcGXCudTKTjHQIAAAD593Wxm33dpadMvwWq5NoiN6P6CoEuBgAAAGCZNOl7R8D1TGzXOwMAAACK46LY/eEnSZLfKHaXmEmgXgJUx7VFbvZyF0L613Ta9Q4BAAAAlMU0kWPvDLiJdTm8AgAAwG0NT+OraU2fMMK8vNjLDVTH9ePKL34Fe7lzTi154Z0BAAAAKAv2chfDZJLteGcAAABA8cxHmEuS/MZ7f/mwlxuojpuL3OzlLgDrNpuh650CAAAAKAv2cuefiXDZFwAAAHc2PI2vJjV9zPjystGfvRMAWI8bi9wbG7XjNeTAPZlkW94ZAAAAgNLgsm8RpJut1pZ3CAAAABTXxxjjRk0fq8hr7yxYFut4JwCwHjcWuWOMIxXpryEL7ucZO+kAAACA5eCybzGwugkAAAD3FWMcDQanOyry0jsLliJtNELHOwSA1bt5XPkF9nLnX8pOOgAAAGA5YowjEe1558BNWN0EAACA5RgMTvcSTZ6yp7v4kmTa8c4AYPUWLHInxytNgaVgJx0AAACwPCrGZd8CMLFd7wwAAAAoh7OzeGw1fUKhu9gy0453BgCrt1CRu16XPj/UCyFttFrb3iEAAACAckh63gmwCOuGEIJ3CgAAAJTDMMY+he5iM5HgnQHA6i1U5L4Y1Se9lSbBcpjSzQ0AAAAswWAQexxsFcOY1U0AAABYIgrdxaYqP3tnALB6i+7kFlNlVF8xdNhJBwAAACyHib31zoCFPAshpN4hAAAAUB7DGPti+tQ7B+7AJPD5ACi/hYvcG4kcrjAHloiddAAAAMCSZNbzjoCFpBO6uQEAALBkg0HsSZL85p0DtzceM7IcKLuFi9wXI8u1t7ooWB7r0s0NAAAA3N/GRu3YOwMWYyIv6NYAAADAsg1P4ysVee2dA7eTJNOOdwYAq7VwkVtERMUYWV4QdHMDAAAA98dl30KhmxsAAAArMRic7oho3zsHFmemwTsDgNW6VZF7Uk8OV5QDS2fdRqu17Z0CAAAAKLxE2ctdECayG0II3jkAAABQPtO6PlXVkXcOLMZUHnlnALBatypyf4wx0sVQJEo3NwAAAHBPG4kcemfA4sbTjM9BAAAAWLqPMUYxY2x5UZh2vCMAWK1bFblFGFleKCah2WzveccAAAAAioyR5QVjst1shq53DAAAAJTPYHC6J6rROwcWoJZ6RwCKKj0/SjfOjzreOW5y6yK3SNJbegqsjIm8CCGk3jkAAACAQmNkeaGYGN3cAAAAWAk1fe6dAQswCd4RgCJJz4/SH/99tPPjH8cn/zM9T0z3vTPd5NZF7sEg9uhiKJSUcX0AAADA/TCyvGisSzc3AAAAVoEaSXGEEIJ3BiDP0vOj9MH5UffHP45P/mv6XlT3RaQ7+9fdB+dHwS/dze7Qyc3I8sIx2Wk0Qsc7BgAAAFBUjCwvHtPsgKlWAAAAWAUVfemdATcbjyX1zgDk0YPzo+6P/367/1/T92Z6IiJdle//vGSZbK893C3cqcg9qSeHS86BVVPL/VgBAAAAINcYWV4sJmEyyXa8YwAAAKB86OYuBksYWQ7MbZwfdX44f7v7wx/H52Z6Imo7lxW2v6SqL9YU707uVOT+GGPkB3jRWLfRam17pwAAAACKipHlxWMiLxhRCAAAgJXgEmzu1WSaemcAPH25ZzsxfadmezcVtr/9Eg/Oj7orindvdypyX/xOfoAXjuk+4/oAAACAu2FkeSGl44kdeIcAAABA+XAJNv+yTFPvDMC6zfZsb//4x/HJ/0zPv9mzfWuWydbSwi3ZnYvc/AAvpHQ8zXa9QwAAAABFxe69IrLuPxrtHe8UAAAAKBcuweafKju5UR0Pzo+6D/59fDDbs30g9yhsf0X1WXp+lC7lay3ZnYvc/AAvKJOdZjN0vWMAAAAARVSvS19VR945cDuJyi5TrQAAALB0TLzNNVN55J0BWKUH50fdH//9dn++Z9tUtm85jnwR6Z/TfHZz331cudDFUFSm2QEHPAAAAMDtxRhHYvbGOwduLf2LseUAAABYsmkix94ZAFTLg/Oj8MP5290f/zh+b6YnorazgsL2VyzRZ6v8+nd1ryI3XQwFZRIYWw4AAADcVXLsnQC3p2JbjXbI5QdzAAAAFNPHGCM1kvwyk4feGYBlSM+P0h//fbTz4x/HJ2b6Xs32RCSsMUI3jyPL71XkpouhwBhbDgAAANzJYBB7rG4qqCx7FUII3jEAAABQKj3vALhcIvo37wzAXaXnR+mD86Puj38cn/zP9FxU92VZe7bv4L+Z7Hh976vcq8g9+xLH9/8a8GCSHXHAAwAAANwBu/eKKh0zthwAAADLZPbBOwKA8pjv2f6v6cU4csfC9pdU9RfvDN+6d5GbLoZC44AHAAAAuIONRA4ZS1hU1v1Ho73jnQIAAADlYEkSvTPgcrbiPcXAsjw4P+r+cP5294c/js/XtWf7DroPzo+63iG+tIRObqGLodA44AEAAABuK8Y4EsYSFlaiss/6JgAAACxDYtPonQFXUEu9IwBXSc+P0h/O3+7O9myfqNleDgvbX7FMtrwzfGkpRW66GIqNAx4AAADgDkxfe0fA3ZlmByGE1DsHAAAAis2sNvLOAKAY0vOj9Md/H+3M92yr2Z7kZBz5QlSfeUf40lKK3DHGkZhxwFNgswOe4J0DAAAAKApWNxWcSRhP7Mg7BgAAAIptUpfonQFAvj04P+r++Mfx0X9N34vqvhSpsP21NE8jy5czrlxEJvXkcFlfCw4uDnjYzw0AAADcBqubCs66m832rncKAAAAAEC5PDg/6v7477f7n/Zsi2zlfRz5Isw0N5+hl1bk/hhjpIuh6KzbaLX3vVMAAAAARcHqpuJTkb1GO+Rq5BoAAAAAoHgenB+F2Z7t92Z6Imo7ZShsf6OTnh+l3iFElljkFhFR0ZfL/HpwYLLzj0Z7xzsGAAAAUASsbiqJLHvVaISOdwwAAAAAQLF8uWfbTN/P9mwH51irlP4vk23vECJLLnIPBrGnov1lfk2sX6Ky32yGrncOAAAAoAjq9eSVdwbcWypJdhRCCN5BAAAAUCz1SamLWQAukZ4fpQ/Oj7Z//OP45H+m5wXfs317qr96RxBZcpFbRMQSfbPsr4n1M+GABwAAAFhEjHHE6qYSMAnjSXYUQki9owAAUEUhhJTnMAAgz+Z7tv9r+t5MD6RKhe2vdR+cHwXvEEsvcrOTrjTS8TQ7odANAAAA3IzVTaXRGU/syDsEAABVEUJIG43WdqP56GQ8yc4nk2zHOxMAAF96cH7U/eH87e4Pfxyfl3jP9q1lORhZvvQiNzvpSsQkzArdqXcUAAAAIM8Gg9ijm7ssrNtotQ+8UwAAUGbNZug2Wu2DyTR7L6oHItYVETGRFzTdoGjMpsE7A65gNGTibtLzo/SH87e7sz3bJ2q2R2H7a6r6wjvD0ovcIhc76ejmLomLkX0UugEAAIAb0M1dIibbm832rncMAADKZFbY3m+22ucm2YmYbJt9VzBIxxPjshkKRVWDdwZcTkVG3hlQHOn5Ufrjv4925nu21WxPqjuOfBHpg/OjrmeAlRS5Z93c7OYuj854kp14hwAAAADybDCIPVGN3jmwHCqyR6EbAID7CSGEzWZ7d7PRfj8rbO9cUtj+hnU3W62tdeQDliT1DgDgbtLzo/TB+VH3xz+OT/5r+l5U94XC9sIsky3P77+SIreIyKSevFrV14aLDiP7AAAAgJvQzV0mFLoBALi9EELaaLd3Znu236vInqqE23wNFd1nsiSKwkR/9s4A4HYenB91f/z32/3/mr430xMR6TKO/A5Un6XnR6nXt19ZkftjjFFU6OYuE5NtCt0AAADA1YZn8ZDVTeVCoRsAgJuFENJWK2zNCtvnksn+fM/2nZiE8TTj+YtCUJWOdwZcztSidwbkx8b5UeeH87e7P/xxfG6mJ6K2Q2H73tI/p37d3CsrcouISI1u7tKh0A0AAABcz+y1dwQsF4VuAAAuN9+zPZlm7zPLju5V2P6WyU6zGZb39YAVCCGkZpZ65wBwuS/3bCem79Rsj8L2clmiz7y+90qL3MMY+yLaW+X3gAOT7Uaz/Y6RQQAAAMD36vXkFd3c5UOhGwCAC81m6G4227vNVvt88T3bd2OSHYUQwiq+NrAMkwld3HmmJh+8M2D9Znu2t3/84/jkf6bn7Nleua7XyPLVdnKLiLKTrqw640l2QqEbAAAA+FqMcUQ3dzlR6AYAVFUIId1stncbzUcnJtmJiuytqrD9jXQ8MaZKIrcsocgN5MWD86Pug38fH8z2bB8Ihe21+W8mOx7fd+VF7sEg9ujmLq3OeJq94zYlAAAA8DW6uctLRfYarfa+dw4AAFYthJA22u2d+Z5tFdlb6jjyhVn3H432zvq/L7CAzH71joCrKTu5S+/B+VH3x3+/3Z/v2TaVbcaRr5+q/uLxfVde5Bahm7vUTMJ4mp1Q6AYAAAA+o5u75Ex2Gs1HTLYCAJRSsxm6zdajo8k0ey+Z7PsUtr+WqOyznxt5pEond55NpTbyzoDlS8+P0h/O3+7++MfxOzM9EbUdCtvuug/Oj7rr/qZrKXIPBrEnKm/W8b3gYFbobjRCxzsKAAAAkBf1evJKVKN3DqyKdZlsBQAoi2YzdBut9v58z7aZba1pHPnCTLMDnrvIk2YzdM0s9c6BqyUmI+8MWI70/Cj98d9HO/M922q2J8IlkzyxTLbW/T3XUuQWEZnWkr11fS84MAmi2TtGBwEAAAAXYowjYapVuTHZCgBQYCGEsNls72422u9NshMx2clbYfsrJmE8yY68YwBzptkz7wy4Xr0u0TsD7i49P0ofnB91f/zj+OS/pu9FdV/Ys51fqmv/mbi2IvfHGKOKMK6v5BKV/c1me9c7BwAAAJAHw7N4SDd3yV0cuHPhFwBQCN/s2X6vInuqErxz3UKn0Wrve4cAZrreAXC9GGP0zoDbm+/Z/q/pezM9EZEu48gLIV33yPL6Wr9ZPdmbTO0ZIzzKTUX2NpuPOj/U9TceIgAAAKg6NX1uYifeObBS6ezC79/+NTilex8AkCshhHQ8nm6JJs/Gk6x78U/NNdO9mOxsNtsjnrnw1Gq1tjIr1AWRKhp5B8DiHpwfdTNJfhGzi6kiaqLeoXBrZrorIr11fb+1dXKLzMb1mdHNXQEqtsXYPgAAAEBkMIg9Ee1558DqzS78HvE5CACQB7M92weTafZeVA9ErOudaVlUZK/RDoyKhptM9FfvDLgJE7XyLj0/Sn84f7v74x/HJ2Z6omZ7dGwXXic9P0rX9c3WWuQWEanXk1eqOlr394WDi7F97xnbBwAAgKpTdnNXBhd+AQCeZoXt/WarfT7bs72d6z3b95Flh81m6HrHQPWEEIKYbHvnwPVM7IN3BnwvPT9Kf/z30c6Pfxyf/M/0XM32hNH/ZZL+L1vfz8e1F7ljjCNTDniqJFHZb7TaByGE1DsLAAAA4IFu7oqZXfjdbLZ3vaMAAMovhJBuNtu7jeajd7PC9k5pC9vfMMmOGo3Q8c6BahlPM97xCkBFoncGfPbg/Kj74N/HB/81fS+q+0Jhu7x0fZMu1l7kFhEZnsZXooyKqBST7fE0e0c3AwAAAKpqWtfn3hmwXowvBwCsSgghbbTbO43mo5PxJDtXkT0R63jncpCKMkEF60MXd4EYRe48+PHfb/d/+OP43ExPTGWbceSV0H1wfhTW8Y1citwiImoc8FQO3QwAAACosI8xRhVhqlXFzMeXN1qtbe8sAIBiCyGkzWboNpqPTibT7L1ksl+mPdv3kLIqBOtCF3dxqCZ97wwQUbUOhe3qydY0stytyM24vupSkb1Gq/2eF08AAABUTb2evFLVkXcOrJlJENODRqu9zxonAMBtzfdsT6bZe5PsRMS6VRlHvjCTMJ5mJ4wuxyrRxV0s9Tqd3LmQ2RvvCFg/VX2xju/jVuQWYVxfpdHVDQAAgAqKMY5MlW7uqjLZGU+zd81m6HpHAQDkW7MZupvN9m6z1T6v2p7tOzMJohS6sTrjiR15Z8DCRjHG6B0CIn/W5NhERt45sHbpg/Oj7qq/iWuRm3F9oKsbAAAAVTM8ja+YalVhJsEkO2m02gd8DgIAfOnLPdsm2YmK7FHYvrVUNDtptMMz7yAol2Y7vKjo3vtCUtG+dwbMPHw6UqObu4osk61Vfw/XIrfIxbg+UY3eOeCIrm4AAABUjArd3JVnss2ubgBACCFtNFrbjeajk/EkO2fP9lKkkmWHnDViWS7GlGd73jmwOFOL3hnwmSZy7J0BDlSfpedH6Sq/hXuRO8Y4SkR/884Bf/Oubg55AAAAUHaDQeypyGvvHHD2eVc3Xd0AUDGzPdsHk2n2XlQPKGwvn4rsUejGMoyn2QlTFQomk396R8Bnfz582mNkeSWlf05X283tXuQWETk7i8eM64OIcMgDAACAyqjXkz1VHXnnQA6YbDPdCgDKb1bY3v9iz/Y2hbPVUpG9RvPRCeeMuKtGq70vJsE7B25HNel7Z8DXEjMueVeQJbrS9SG5KHKLiEzr+pwDHnzyxSFPCCH1jgMAAAAsW4xxZMrYcnzGdCsAKJ8QQthstnc3G+33s8L2DoXtdbPueJpR6MatbTbbu2Ky450Dt1evS987A76RyKF3BLjornJkeW6K3B9jjMJNDnxDRfbG0+wdhzwAAAAoo+FpfMVUK3zl83Sr981m6HrHAQDcXgghbbTbO7M92+9VZE+VTlBXJmE8yd7/o9He8Y6CYmi0wzMV2fPOgbvQfoxx5J0CX/vz4dOoIj3vHFi//2aruyyUmyK3iMhgcLonqtE7B3Lmi0Meit0AAAAoG6Za4VImwSQ7YZUTABRDCCFttcLWrLB9Lpnss2c7fxKVfZ6tuEmjHZ5Jlh1658AdqfW9I+ByZvbWOwPWT1V/WdXXzlWRW0RETZ97Z0BOzYvdzfY7OhoAAABQFky1wrVmq5w4kAeAfJrv2Z5Ms/eZZUcUtgvAZHs8zU44X8RlKHCXQfK7dwJc7v8mcmgiI+8cWLvug/Oj7iq+cO6K3INB7KkIBzy4TsckO2k0H/EyCgAAgFIYDE73RLTvHAN5RrEbAHKj2QzdzWZ7t9lqn7Nnu6A+T0zZ57mKuWY7vKDAXQIZ+7hz6+HTUSL871NFlsnWKr5u7orcIiL1esLYcizAuvNiN2PMAQAAUHh1plphARS7AcBFCCHdbLZ3G81HJybZiYrsUdguAZOd8TTjbBHSaLX3LcteeefAPanG4TD2vWPgGmovvSPAgeqzVXzZXBa5Y4wjxpZjcdZlZzcAAACKbhhjX0X4wI/FfFHsZsIVAKxGCCFttNs78z3bKrLHOPISmq9I5AJZJYUQ0kbz0YmY7Hhnwf2Z2T+9M+B6fz582mNkeSWlqxhZnssitwhjy3EHn19I3zdarW1eSgEAAFA0jC3HrZlsX0y4ar/j0i8ALEcIITSaj04m0+y9ZLJPYbsiZhfINpvt3RBC6h0Hq9dshu54mr3jz3h5qCbH3hlwMzV7450B62emu8v+mrktcoswthx3NCt2z7saGo3Q8Y4EAAAALIyx5bibzvzS7+xwPngHAoACG4lYl3Hk1aQie+NpxuWxEgshpI1We98kOxGT4J0HyzOtSc87A26miRx7Z4CLTnp+lC7zC+a6yM3YctybybZo9m6+t5tbmAAAAMi7YYx9SZLfvHOgoEyCiuwxyhwA7i7GOBIVusyq7JuJkd5xsDyfurcZT14+qvFjjNE7Bm7258OnPRUuJFRQ+r9Mtpf5BXNd5BZhbDmW5WJv92TKQQ8AAADyb3gaX4lozzsHCm4+ypzubgC4tWkt2fPOgByg2F0a8zUEdG+XmfW8E+AWzH73jgAHqr8u9cst84utUqP56J2IdbxzoERUoogcb9SS15EbXgBQOI1W+1BMnnnnwGeJ2vOzs7ND7xxAWfw9hFCf2jszS72zoEy0J5q92ajVenwOAoDrNZqPTtjVi6+oRBF7yXO0OEIIYTzNdsWW2z2I/FFJngwGseedAws6P0p/ND33joH1U7Wf/nz4NC7ja+W+k3tuWtenqjryzoESMQlisjOeZO8bzfa7Rru9Q2cDAAAA8uJjjNFUX3rnQNlcTLm6+Bz0aa1T8E4FAHmkwnMY35h1dk+m2btGq33AMzS/Qgih0WofjCfZewrclTCiwF0wD5+OGFleTdkSR5YXpsjNAQ9WrCOZ7H8qeLfa+41G6HiHAgAAQLUNT+MrMXaCYlUoeAPAdS4KJqwPwffMJBWT7W+eoal3Llzs3G40H51Q3K4WE2H0dRFlxmfdClLVF0v7Wsv6QuvSbD06MrMt7xyoiIuR5j0Te/vDxRiikXMiAMAM48rzh3HlwGqEENLx1N6JWfDOgsroi0pPLXlLRwyAqms2Q9ckO/HOgfxTlZGJHKslb3h+rlcIIf1rkr1Q0S1WnlaUJs+HZ/HQOwZu6fwo/cH0vYqk3lGwXqr25M+HT3v3/jpLyLJWHPDAl/ZU7HeRpMfLKgD4osidPxS5gdVphNCRSfbOOweqR1VGmWlPNXsrWa0/HMa+dyYAWDc+e+DWZo0zFLxXJ4SQjsfTLdHkmYh1vfPA10Y9eUiDWjH9+O+jV7LEzl4UhNnr//v/Pt2575cpXJFbhAMe5IOqjMy0Py961+vS50EKAOvDQVP+UOQGVqvRDjuSZfveOVBxKtFM+5rY7zJNehS9AVTB30MItUn23jsHiunLC2MbF5Mio3emogohpOMs25ZMf1W1jhndnxAxkbf/GpxueefA3Tw4P+qaKRNTqmf0/6j9NHr4dHSfL1LIIrcIBzzIrb6o9ETsn3Q5AMBqUeTOH4rcwOqxvgl5M7/8K2p9E/tds1rkcxCAMmo2269MhE4zLMOntSA0zVwvhJD+NZ12VfQXy2RLVYJ3JuQQo8oL74c/js8ZWV49mtnzP/+/p4f3+hpLyuKCAx4Ug/ZErS8qHzRL+ry8AsByUOTOH4rcwOqxvglF8G3hO7HaiM9BAIouhJBOpvbezFLvLCidvqj0Rez3qjfNNBqhIzLtSKI/i0lXRDq+iZB7qnF49uEn7xi4nwf/Ptoz1V3vHFi73v/9/209uc8XKHSRmwMeFNUXhz5RTT5kan3NanFjQ2LZDn5CCKmIpH9Npx1VDSryt8Hp6UvvXACKjyJ3/lDkBtajEUJHp3bCITsKqC+ioy8vAZvJqIyH+Rd7QiWIXHwOMrU45BkJFF6z2d4zEQ7hsVJfXhYra9NMCCHMzwrF5Gcx6ahKYPw4bk3lcHh2+tw7Bu7nwflRMFPWglTQ/6P28D4jywtd5Ba52IlTn9o7DnhQFhcvshLnhz9q8h8zi6q1KCJSr0vMy+6eeQF7MpFgNg1S01RMHolIKiYdM0kvGyO0UU8elunFHIAPitz5Q5EbWB/WN6Fs5gf6JjLSi8vAnz4HmcloY0NGOfocFERE/ppOO5pJelHElkdmmqpYuOKQfjQcnD5ce1gAS0XDDTx9+axMxP5piYzmF8by1Dhz1XmhmQYx6ySJpBSzsSwqyZPBIPa8c+D+HvxxfGIiXe8cWC8ze/nX//t0766/v/BFbhGRRitsi2UH3jmAdTOTqCojER2JiIhanP87Nfnw1a9NZCRTG137BWuaavb5JdNU/ibzXRim4eJ7XnyQu88OHBV5ORic7t319wOACEXuPKLIDawXu0FRRaoyyjIZXfE5aKQm//ny15t9/ox09de8+Kzz6feoPPrib4KIpWaS3vdQnkNYoBw4h0SeXZwVahQRmV0cG83PCL89G7RERonVRpd+IRHJdPrVOaHI52fm92eGy3lWArfCqPJS+fHfRzuiykXu6rnXyPL6MpN4GZ7Fw2az3eGAB1XzudBsX/3XN395Ibv4DdfKvvl9l/zNTV9iEabyTET27v+VAAAAqqteT/bGE/tFxDreWYB1mU2LSmd/99V/ffOXFxb4APPd77nic5B99wtvxyTbEpHe/b4KAG/Ds3jYaD56JmJd7yzAty7OCmcNKiIi9sVj7ZuzQTURk+zqr2X6XYucffcXn/9mGc9K4HaUlZgl8n8TOfzBZFeFizIV031wftT98+HT3l1+c7LkMG4Gg9MdEe155wCwAJPQbIaudwwAAIAiizGOpnV9KrNuHQC592w2whVAwSmFFQDwNtqoybF3CCzRw6ejRKTvHQPrZ5ls3fX3lqbILSKywQEPUBizLgYAAADcw8cYo9T0qXcOAAtJ/5pOu94hANzfYBB7KvLaOwcAVJbKcV720GOJ1LhEVkWqd15HWaoid4xxNK3pE9XZXi4AeUYXAwAAwBIMY+xLkvzmnQPAzdQS1qwBJVGvJ3ucQQKAj2ktoRhaQn8+fNozkZF3Dqxd+uD8qHuX31iqIrfIRSeDij73zgHgRnQxAAAALMnwNL5SEQ56gNyzLpd9gXKIMY5MGVsOAGuncvgxxugdA6uhZm+8M2D9zHT3Lr+vdEVuEZGzs3hMJwOQf3QxAAAALM9gcLqnqsfeOQBcbzzOtr0zAFiO4Wl8JaI97xwAUCVqCUXQEtOEXesV1UnPj9Lb/qZSFrlFPnUysBsHyDW6GAAAAJapXtPnItr3zgHgGqq/ekcAsDzTuj5nbDkArIeK9gaD2PPOgdX58+HTnor0vHNg7dL/ZbJ9299U2iK3iMhgcLrDbUog3+hiAAAAWJ4Y42ha16eiGr2zALiKdZvN0PVOAWA5PsYYGVsOAOvCz9tKMPvdOwIc3OEycKmL3CIiG3V9SicDkGN0MQAAACzVxxjjtKZP6CoD8izreicAsDyzseV97xwAUGqqkS7uavgzkVfeGeCi++D8KNzmN5S+yE0nA5B3dDEAAAAs28cYo5g+9c4B4HIm8sI7A4Alq+tz7wgAUGYm2W/eGbAmD5+OGFleTdktR5aXvsgtQicDkH90MQAAACzbYBB7ogkH7kA+pVz2BcplGGNfkoQCDACsgIr2/nV2duydA2uU2RvvCFg/Vb3VZeBKFLlFZvtxKHQDuUQXAwAAwGoMz+KhirC3DsihTIzPQUDJzMaW97xzAEDZmCmXiCrmz5ocm8jIOwfWLn1wftRd9BdXpsgtcnGj0oQfhkAO0cUAAACwIoPB6R6FbiB/VKwbQki9cwBYrmldn9NkAwBLpHI4HMa+dwys2cOnIzW6uavIMtla9NdWqsgtctHJwMg+IH/oYgAAAFidWaH7tXcOAF9Jx+Ns2zsEgOX6GGM0VS6XAcCSTGsJP1MrShM59s4AB6rP0vOjdJFfWrkitwgj+4A8oosBAABgtQaD0x0x4SY8kCeqv3pHALB8w9P4imcuACzF648xRu8Q8PHnw6c9RpZXUvrndLFu7koWuUUY2QfkEF0MAAAAKzYcnm6zKxTIEy77AmW1sZHsiGr0zgEAhaUap/XklXcM+ErMmEhWQZbos0V+XWWL3CIUuoHcoYsBAABg5Tbq+lRE+945AFyYTLId7wwAli/GOJKaPvXOAQDFpS/p4oYkcugdAS66i4wsr3SRW4RCN5AvdDEAAACsWoxxtFHXJxS6gXwwlYW6FAAUzzDGviTJb945AKCA+sOzeOgdAv7+fPg0qkjPOwfW77+Z7Nz0aypf5Bah0A3kCV0MAAAAq/ep0M0YVcCfSWg2Q9c7BoDVYD83ANzetJ4wCQOfmNlb7wxYP1X95aZfQ5F7ZjA43eOFE/BHFwMAAMB6xBhH0xqFbiAPTLIt7wwAVof93ACwOBVhTDm+8n8TOTSRkXcOrF33wflR97pfQJH7C8Ph6TaFbsAZXQwAAABr8zHGSKEbyIVnrG4Cymt+sUxVR95ZACDXVONgcLrnHQM58/DpKBHpe8fA+lkmW9f9e4rc36DQDfijiwEAAGB9KHQDuZD+NZ12vUMAWJ2PMUYVfe6dAwDybFrTJ94ZkFNqrByuItVrJ/9S5L7EcHi6zY5uwBVdDAAAAGtEoRvwp5a88M4AYLXOzuIxZ44AcDnGlOM6fz582mNkeSWl140sp8h9hcHgdI+XTsBNOplIxzsEAABAlXyMMW7U9LGI9r2zANVkXS77AuU3GJzuMUUSAL7BmHIsQM14flaQme5e9e8ocl+DQjfgx8Su/MEFAACA1Ygxjjbq+oRCN+BjPM62vTMAWL2NjWSHZy0AzKhGxpRjEZrIsXcGuOik50fpZf+CIvcNKHQDXuhiAAAA8DAvdKvqsXcWoHJUf/WOAGD1YoyjaV2fsiYEAERElDHlWMifD5/2VKTnnQNrl/4vk+3L/gVF7gVQ6AZ80MUAAADgI8Y4Gpx9eMo4VWDdrNtshq53CgCr9zHGOK3pE1UdeWcBAEevh2fx0DsECsTsd+8IcHDFZWCK3AsaDE73JEl+884BVApdDAAAAK6Gw9NtLvwC65Z1vRMAWI+PMUaj0A2gqlTjcHC64x0DxfJnIq+8M8BF98H5Ufj2H1LkvoXhaXyVaPKUF09gXehiAAAA8MZkK2C9TOSFdwYA6zOMsW+iNNYAqBb2cOOuHj4dMbK8mrJLRpZT5L6ls7N4bDV9ws4cYF3oYgAAAPBGoRtYq5TLvkC1DM/iIRMkAVSJmj5nDzfuLDPWalWQqn53GZgi9x0MY+xPKXQDa0EXAwAAQD4MBqd7oslz7xxAFZhmz7wzAFiv4Wl8xYUyAFWgIi8Hg9jzzoHi+rMmxyYy8s6BtUsfnB91v/wHFLnv6GOMkUI3sBZ0MQAAAOTE8CweSj15zOcgYMVMtkIIqXcMAOvF5BQAZXdR4D7d886Bgnv4dKRGN3cVWSZbX/49Re57+Bhj3KjpY1U99s4ClBldDAAAAPnBZCtgLdLxONv2DgFg/Sh0AygrVT2mwI1l0USOvTPAgeqz9Pwonf8tRe57ijGOBmcfnvLyCawQXQwAAAC58mmylWjfOwtQWqq/ekcA4INCN4DSUY31mrL6CEvz58OnPUaWV1L65/RzNzdF7iXh5RNYKboYAAAAcuZjjHE4+PBYRV57ZwHKybpc9gWqi7NGAKWhGqc1fRJjHHlHQbkkZnwWrSBL9NPkX4rcS3Tx8pkwtg9YBboYAAAAcmkwON3hEB5Yjckk2/HOAMAPhW4AhTcrcH+MMXpHQQklcugdAS6685HlFLmXbDCIPfbTAatAFwMAAEBeDQane4kmT1V15J0FKBNTeXbzrwJQZhS6ARSVqo4ocGOV/nz4NKpIzzsH1u+/meyIUOReiY8xxo2aPlbVY+8sQJnQxQAAAJBfZ2fxeFLTx1z4BZbIJDSboesdA4AvCt0AikZVR0aBG2tgZm+9M2D9VPUXEYrcKxNjHA3OPjzlBRRYHroYAAAA8u1jjHFa0ydc+AWWxyTb8s4AwB+FbgBFMS9wD2Pse2dB+f3/27u79Cau7O/7v1WS86T75BbJSRq9sBlBxAgijyD2CDAjwIwAMwLMCDAjwIwAMYKoR8C2VerbJ0+3/ifPn46kWs+BbOIQXqxSyVWSvp/rSnde2KWFJMq2fnut/d9EJy6Ny64Dt673/X9e9wi5V+xqbB/dDEAB6GIAAACovIsYIxt+gUI95OgmABJBN4DqI+DGrbuzP06kQdll4PZ5pj1C7lswHMZTzukGikEXAwAAwHpgwy9QmMZ0qm7ZRQCohjQ9P5Ilj8quAwA+RcCN0pizAWwbmd0j5L4lH8/pll6UXQuw5uhiAAAAWBNs+AWK4fKnZdcAoDpGw3iievLAzMZl1wIAEgE3yvXhzn6fkeXbwaWxuT8z893//rC3T8h9i2KM4zQ9P1SSPOGbUCA3uhgAAADWyEWMcTQ8u894VWAZ3mOzL4DrRjEOpjV7wEYyAKUzi9OaPSDgRpnM/VXZNWA1XBon7i/MfPf3H/bufPhx/+jDnf2+JBFyl2B0Ho/5JhTIjy4GAACA9fNxvCo/BwG5TCbZQdk1AKiWixgjE1MAlMoszmq2exFjLLsUbDdLdFp2DSiWSf2a+f7fze//74/7h1fB9nWE3CW51s3A+HJgYXQxAAAArKPRMJ7MarYr2aDsWoC1Y/Zr2SUAqJ6PRySanZZdC4BtYwMCblTFhzv7fZP6ZdeB5ZjUl/mTv5nf+fDD3u7/d2f/dHxnf/ylX0/IXbI0PT+kmwFYHF0MAAAA6+kixjhKzx4wvhxYlPdardAruwoA1RNjHKfDs32+tgK4Na5XO3UCblSM+7uyS0Au8fKc7fsfftjb/e+d/eOvBdvXEXJXwLVuhn7ZtQBrgy4GAACAtZam50ezenKfDb/AIrJe2RUAqK40PT9Skjwxs3HZtQDYaC9Go/ODGOO47EKA6z4kOi67BtzM9XO2//vD3v3Lc7bjotch5K6Iy26GXSXJk7JrAdYDXQwAAADr7uOIVY5xAm7Epcdl1wCg2kbn8XhaswdsIgOwEq4no/T8sOwygM+6sz9mZHl1uTQ214mZ7/7+w96dL52zvQhC7ooZncdjuhmAm6KLAQAAYN3FGMcc4wTcWIPNvgC+5SLGyNRIAEUys7Ep2R2Nzo/LrgX4qsxflV0C/uzqnO2/m9//8OPeo2WD7esIuSvoIsY4Gp7d5xwd4OvoYgAAANgcH49xMvGhBPAVbtnDsmsAUH1XUyP5fBHA8mwwrdmDNI39sisBvuVDTacujcuuY9uZ1Df3Z38zv7PoOduLIOSuMM6oA76JLgYAAIANMt/we35AVzfwFa69EEKj7DIArIc0PT9KLNnn6yqAnF7s1G33IsZYdiHAjdzZH5vTzV2G+Thyf2bmux9+2Nv98OP+0SqC7esIuSuOrm7g6+hiAAAA2Dx0dQNf1ZhMsoOyiwCwPobDeMr4cgCLMLPx1fnbMcZx2fUAi7BEp2XXsC1cGifuL67O2f7w4/5RkePIv4WQe01cdXWb2WnZtQCVQhcDAADARrrq6qb7DPgMs1/LLgHAemF8OYAbM4teM87fxtr6cGe/z8jy1XFpbFLfzHf/bn7/f3/cP7zNYPs6Qu41chFjTIdn+4zuA/6ELgYAAIANNhzGU6ZbAZ/yHpt9AeTB8YgAvuHFTs0ejGIclF0IsIzE/UXZNWwak/oyf/J38/sfftjb/XBnv7/qceTfQsi9hhjdB3yCLgYAAICN93G6lWxQdi1AFUyn2WHZNQBYTxcxxp2aPTCJAACApPl4crdkn/Hk2BiJTsouYUMMzP3Z38zvfPhhb/e/d/aPyw62r7OyC8Byfgoh1Gb+Vu6h7FqAMu3Ukzt8AwZsl2a7cyLXw7LrwB8S80fD4fCk7DoAbL5mOxxI/pSfg7DVTHE0PL9fdhkA1lurFXpu/pKvqcD2Mll/WrdHFzHGsmsBivT9v0/futQru45149K45v7KE52WNYb8pujkXnPzc+rO7jPCHNuOLgYAAIDtcTXdig40bDVXaLVCr+wyAKy3NI19urqB7WRmY7mepOnZLgE3NpG7vym7hnXh0thcJ2a++/sPe3fKPGd7EYTcG4IR5th2bnRzAgAAbJOLGGOanh/OzxXl5yBsJ1e2V3YNANZfjHGcpueHpmSXJhpgO5isP63Zg9Ho/LjsWoBV+W+iE5fGZddRZSb1zfzR383vf/hx79E6BNvXEXJvkHlX9/kBH/JgK9HFAAAAsJWufg5iuhW21MMQQqPsIgBshjSN/dHw7L5Jz8quBcBq0L2NrXJnf5xIg7LLqBqT+jJ/cnXO9oc7+ydVOmd7EYTcG+jqQ57Ekn0+5ME2oYsBAABge42G8YSjnLCFGtOpumUXAWCzpOn50aye3DfZoOxaABSH7m1sJXM2bulqHLk/q5s/+PDD3u5/7+wfr2uwfZ2VXQBWr9kOB5I/lXsouxZgxcY79eR+jHFcdiEAVq/Z7pzIOaqgShLzR8Ph8KTsOgDgpxBCfZodyOyxuzfKrgdYLeuP0rPdsqsAsJn4XBFYf2Y2dtmT0TCelF0LUIbv/n36H5MaZddx21wa19xfeaLTdRtDflN0cm8BOhqwRehiAAAAwNV53UfTmj3gKCdsPu8xshzAqoyG8WSnZg8YYQ6srRf1mt0n4MY2M/et+ZnQpfHlOdu7fze//78/7h9uasAtEXJvldEwnsxqtmvSM8JubCqXPy27BgAAAFTD1VFOs3pyn7Abm2wyyQ7KrgHA5ooxjq9GmPP1FFgPJuubkt1Ren7I1EtsO0t0WnYNq3Z1zvbfze9fnrPd34Rx5N/CuPItdTW+z80eMm4Im2anntzhmzdg8zGuvHoYVw6g6n4KIdRm2RFfP7B5GFkO4Pa0WqHn5i/5TBGoHkaTA5/3/b9P37rUK7uOIpnUl/u77xNtxPnaedDJvaWuxvfR2Y1NRBcDAAAAPofObmwu77VaoVd2FQC2Q5rGPkcjAtViZmOTnjGaHPgC93dll1AEl8bm/szMdz/8sLf74cf9o20NuCVC7q1H2I2NZPZr2SUAAACgugi7sZmyXtkVANguo2E8IewGKsB0Mq3ZgzQ9P2K6JfB5HxIdl11DXi6NE/cXZr77+w97dz78uH+0yedsL4Jx5fiLZjscSP6UkUNYZ6ZkN01jv+w6AKwO48qrh3HlANYVY8yxIcaj9PxO2UUA2E4cjQjcPpP1JXvGZ6DAzazbyPLLc7ZffS+dbnO39tfQyY2/YBcmNgNdDAAAALiZP3V2J8kTfg7CmmowshxAWa5Pi2RKCrBaJuvPG3zOaPIBFpF55b8+XQbbT/5mfufDD3u7H+7snxBwfxmd3Pim+Q/J/tTlvbJrARZAFwOw4ejkrh46uQFsEiZcYS2ZTkbD80dllwEAH6ekyH7haylQDDq3gSX953XjO7f3JjXKLuUT0dxfKdHJhzv7sexi1gkhN26MEX5YN4wsBzYbIXf1EHID2EStVujJ/LG775VdC3AD4516cp/zOAFUBWPMgeURbgPF+X/+39fHMntcdh0ujWvurzzRKedr58e4ctzYn0b4Mcoca8AtI/wCAADAUtI09tPh2f785yC94ucgVFxjMskOyi4CAK5cjTHfqdkDPk8EFsNYcqB4lui0rMd2aSzp1Mx3f/9h787//rh/SMC9HDq5sZRWK/TcsgM66VBRdDEAG4xO7uqhkxvAtmi2w4G5P+RIJ1ST9Ufp2W7ZVQDAl3AkCPB1JjuV7AXBNrAa3/379D+3ObLcpL6bv/mbxPnaBaOTG0tJ09inuxsVRhcDAAAACjcaxpM0PduluxvV5L0QQqPsKgDgS0bDeDIant03JbsyvSq7HqAKzGxs0rOdenInTc/2CbiB1UncX6z6MUzqm/uzv5nf+fDD3u5/7+wfE3AXj05uFO6qu9tkv7p7o+x6sO3oYgA2FZ3c1UMnN4BtRnc3qsSkZ2l6flR2HQBwEz+FEGqz7EiyX+juxhYamPSmXk+OmUYJ3I7v//M6uNv7oq/r0jhxf6FEfcaQ3w5CbqxMCKExmWmPD3pQtp16codvEoHNQ8hdPYTcAHD1Qb16jGFFqUxxNDy/X3YZALAoNo1hW5isL9kzOraBcnz/79O3LvWWvY5L45r7K090SrB9+xhXjpWJMY7/PMYveWSyQdl1YftMp9lh2TUAAABgO1zEGK/GsKqePGCcOUrhCq1W6JVdBgAsiiNBsMk+GUm+S8ANlMfd3yyz3qS+me/+3fz+//64f0jAXQ46uXHrfgoh1DLtyf0xnQ24JYNRev6g7CIAFItO7uqhkxsAvuzqWCdGseIWvRil54dlFwEAy2q3w16mbI+f/7COzGwsV1+yF4TaQIX853XjO7f3JjVuusSkvpu/+Zt0wvna1UDIjVJdBd6W+UOXd8uuB5vLlLA7EtgwhNzVQ8gNADdD4I1bMt6pJ/c5ugnAprg6EoRx5lgHJut7Ym92Ep3wtRiophuOLI/m/ur7RMcE29VDyI3K4BtVrBhdDMCGIeSuHkJuAFhcqxV6rmzPZL+w8RdFY7MvgE3F54ioovk52/6uXk+OCbaB6vv+P6977vb203/POdvrg5AblfTxG1X5r5J67t4ouyasPboYgA3TDKFr05uPFMLq1esacJ8FgPz4wB7Fs/4oPdstuwoAWCW+fqJM14LtkxhjLLseAIv57t+n/zGp4dI4cZ0q8VcE2+uDkBtr4Vp3w898s4q86GIAAADAugghNGYz9TJle4w1xzJ26skdNqEB2BY0zuA2XBtFfkqwDay37//z+kCSvpdOGUe+fgi5sXb4sAf50cUAAACA9cSH9sjN9WQ0Oj8uuwwAKEOrFXpu2QGfIWIZZjY2+WmW+budndopm8cAoBoIubH2rj7skbIe37DiW+hiAAAAwCZohtBVpp65/yJCb3wVm30BQGLDGBZzNYZcSvpMhgSAaiLkxsb5KYSwM1M386xnsl9c3i27JlQIXQwAAADYQM0QupqpK2U9c/uZn4PwJ548GI3ioOwyAKBKPm4Yy/xXmbqE3tvNZAOXv0ss6ddq6tMkAwDVR8iNjRdCaEyn6nqirrn/4lKXbu9tRhcDAAAANt/Vz0EfJ17x4f1WM+lZmp4flV0HAFTZ9SkpfH64+UzWd/k/CbUBYH0RcmMr/ekDH7Of5Qp0OmwoV7TEBm72LnFFvmkFAADAtmqG0E1mCpdTr34m+N5grpgk6meW/NMyDep1Dfg5CAAW88m0SL5urjO+LgLARiLkBi5d7/hWlgW+eV0vZjaWK5r5gG9YAQAAgJv5dPIVG4DXzNWmXvczuQ+0UxvsSJGfgwBgNdgwtgauBdo0vADAZiPkBr7hs+G31OCDn5K4oplFM4/XvlkdxBhj2aUBAAAAm6IZQtemarAJuCIIswGgsmicKQlfGwFg6xFyA0v4ywc/ZvfkavCNbH5mNvbMx5bYwOTjzJJ/ajYb840qAAAAUL4QQmMihWSmkJnC9Y3AMgV+DsrnajKVTNHdz5QkkQ29ALDersJvMzXcs+7lkYkNdw8yhbLrWwvzZpexmQ/cdebukc8IAQBXCLmBFfoYgvssmFlwqfExCN/CD4E+BthXndiu/1GSxGsh9pgPcAAAAID1dRWCf+nnoK38YP/yA3qZosnHVx/SJ0ltXKtpoPnPQeOSqwQA3LLPfm443zimrfh6+Y2vj3xGCAD4FkJuoAJCCGEiNWyqhpkaWTZrmFmQJDPdkyT3+T/P/97n/y2xxm2H5FdB9dXfSxqbeZSkzPU/Jo3d5/9sVote15jwGgAAAMCnQghhOp1/gO8+C5L0lZ+DPv7sU8bPQXLFq781szj///nPPe46m///Hz8H1evzX8/PQQCAZVzfPHaDzwz/+Pp4SwH5J58Txvn/f/lzQr4+AgCKRMgNbJAQQkNS43P/7erDo6+5+kbzU3zjCQAAAKCqQgjhc//+aiPxt9bzcxAAYJN96fPCr32dvGpa+dx/4+sjAAAAAAAAAAAAAAAAAAAAAAAAAAAAAAAAAAAAAAAAAAAAAAAAAAAAAAAAAAAAAAAAAAAAAAAAAAAAAAAAAAAAAAAAAAAAAAAAAAAAAAAAAAAAAAAAAAAAAAAAAAAAAAAAAAAAAAAAAAAAAAAAAAAAAAAAAAAAAAAAAAAAAAAAAAAAAAAAAAAAAAAAAAAAAAAAAAAAAAAAAAAAAAAAAAAAAAAAAAAAAAAAAAAAAAAAAAAAAAAAAAAAAAAAAAAAAAAAAAAAAAAAAAAAAAAAAAAAAAAAAAAAAAAAAAAAAAAAAAAAAAAAAAAAAAAAAAAAAAAAAAAAAAAAAAAAAAAAAAAAAAAAAAAAAAAAAAAAAAAAAAAAAAAAAAAAAAAAAAAAAAAAAAAAAAAAAAAAAAAAAAAAAAAAAAAAAAAAAAAAAAAAAAAAAAAAAAAAAAAAAAAAAAAAAAAAAAAAAAAAAAAAAAAAAAAAAAAAAAAAAAAAAAAAAAAAAAAAAAAAAAAAAAAAAAAAAAAAAAAAAAAAAAAAAAAAAAAAAAAAAAAAAAAAAAAAAAAAAAAAAAAAAAAAAAAAAAAAAAAAAAAAAAAAAAAAAAAAAAAAAAAAAAAAAAAAAAAAAAAAAAAAAAAAAAAAAAAAAAAAAAAAAAAAAAAAAAAAAAAAAAAAAAAAAAAAAAAAAAAAAAAAAAAAAAAAAAAAAAAAAAAAAAAAAAAAAAAAAAAAAAAAAAAAAAAAAAAAAAAAAAAAAAAAAAAAAAAAAAAAAAAAAAAAAAAAAAAAAAAAAAAAAAAAAAAAAAAAAAAAAAAAAAAAAAAAAAAAAAAAAAAAAAAAAAAAAAAAAAAAAAAAAAAAAAAAAAAAAAAAAAAAAAAAAAAAAAAAAAAAAAAAAAAAAAAAAAAAAAAAAAAAAAAAAAAAAAAAAAAAAAAAAAAAAAAAAAAAAAAAAAAAAAAAAAAAAAAAAAAAAAAAAAAAAAAAAAAAAAAAAAAAAAAAAAAAAAAAAAAAAAAAAAAAAAAAAAAAAAAAAAAAAAAAAAAAAAAAAAAAAAAAAAAAAAAAAAAAAAAAAAAAAAAAAAAAAAAAAAAAAAAAAAAAAAAAAAAAAAAAAAAAAAAAAAAAAAAAAAAAAAAAAAAAAAAAAAAAAAAAAAAAAAAAAAAAAAAAAAAAAAAAAAAAAAAAAAAAAAAAAAAAAAAAAAAAAAAAAAAAAAAAAAAAAAAAAAAAAAAAAAAAAAAAAAAAAAAAAAAAAAAAAAAAAAAAAAAAAAAAAAAAAAAAAAAAAAAAAAAAAAAAAAAAAAAAAAAAAAAAAAAAAAAAAAAAAAAAAAAAAAAAAAAAAAAAAAAAAAAAAAAAAAAAAAAAAAAAAAAAAAAAAAAAAAAAAAAAAAAAAAAAAAAAAAAAAAAAAAAAAAAAAAAAAAAAAAAAAAAAAAAAAAAAAAAAAAAAAAAAAAAAAAAAAAAAAAAAAAAAAAAAAAAAAAAAAAAAAAAAAAAAAAAAgL+wsgsAAAAAAAAAAGAThRAak8lsL+/6nZ3aaYxxXFxFAABshnrZBQAAAAAAAADzIEhBmnVVs4Zc9yQ13K1hUkOS3D1IkpnFPy02j+Y680Rjd4+W1eJoFAe3+hsAgM/4IDVqZi+XuERf0riYagAA2ByE3AAAAAAAALhVIYTGdKquJ1lXrp89U28yzcJ85qBJ2R+/1uR//P3HmYTzsPsj1/xXZZLJJMvUbHUkaeCyaIm/sywZpGnsr+53BQAAAOC2EHIDAAAAAABg5UIIYZJle8rs1+ks67rUuAqzbXUH6nVN3lWmPVemVrszztz6ZtmbnVqtH2OMK3tkAAAAACtDyA0AAAAAAICVCCE0fp9mj03Wm0yz3vzfuty/tmp13NUw+Z7c9ibTTM3Wvb4se0XgDQAAAKwXQm4AAAAAAAAUqtUKPZc/nUyz3rxJu6RU+5u8J7feZJqp2e6cmCevGGkOAAAAVB8hNwAAAAAAAJYWQmhMsuxArsfuWSi7noW5DlzZwVV392g4PCm7JAAAAACfl5RdAAAAAAAAANbb3Vbn6XSWvVem53KFsutZjvfk9rLZ7rxvttsHZVcDAAAA4K/o5AYAAAAAAEAud9vtPZM9lyuUdc72yriCZC+b7c7TnVqyy5ndwGo12+0DefJwkTWW+Lv0/PxoNRUBAIAqI+QGAAAAAADAQkIIYTL1l3LvlV3LyrnCZJq9b7Y7Jzu15BlhN7Aa5hZci91T3BVXUw0AAKg6xpUDAAAAAADgxlqd8Hg6y37TgmHU2nMdTGbZW0aYAwAAAOWjkxsAAAAAAADfdNW97VnWK7uW0vwxwvzny67ucdklAQAAANuITm4AAAAAAAB81d12e28ru7e/xHU4mWW/hRBC2aUAAAAA24iQGwAAAAAAAF90t9V5am6v3dUotRBXvP6XmY1LridMZtnbZjN0S60DAAAA2EKMKwcAAAAAAMBn3W12Xpp0cCsP5oqW2MDdz+Q+0E5tsCONY4zxa8tCCI2JFJKZgnvWldnPcgWXd2+h5iDLfmt2wsHoPL5a+eMBAAAAkETIDQAAAAAAgE+EEBqTqb9e5XhyMxub/DTL/N3OTq3/rTD7Sy7PxR5c/nV69e9/CiHUZuqZ/FdJPXdvLFvzF2XZSbMTRNANAAAA3A5CbgAAAAAAAHw0D7izt5K6RV/bzMZy9SV7kQ5jv+jrX3cxD81PLv9Ssx0OzP2hryq4J+gGAAAAbg1ncgMAAAAAAEDS6gLuede2ntVrdj9Nz/bTdLUB9+eMhvEkTc92Z/XkvkyrCaKz7KTVCr2VXBsAAADAR4TcAAAAAAAAkCRNZ/5SBQbcfw63z48uR4uX6iLGOBqeH6wq7HZlr0MIoejrAgAAAPgD48oBAAAAAACgu63OU3ffK/CSL+o1O4rxbFzgNQtzOc784KcQjmqz7EiuhwVdujGZZW9DCA+qEOoDKNdFjDGEcD/v+ji/VwEAgE8QcgMAAAAAAGy5u63OU5OOCrmYWTS3R2WMJM/jKuxutkNf8qdyD0tf1BUmU38taXfpawFYewTVAAAUj3HlAAAAAAAAW6wZQrewgFt6sVOzB+sScF83GsaTWc12JRsUc0Xv/aPZOSzmWgAAAACuI+QGAAAAAADYUiGEoFn2upCLuZ6M0vPDdR7RfRFjHKVnD0x6UcT1EtPzZjN0i7gWAAAAgD8QcgMAAAAAAGyp6cyfyxWWuYaZjVVPHoxG58fFVFW+ND0/NOlZIRczf17IdQAAAAB8RMgNAAAAAACwhVqd8Njd95a6iFmc1uzBKMZBIUVVSJqeHxUTdDO2HAAAACgaITcAAAAAAMCWCSEEeXa01EXM4qxmuxcxxkKKqqDLoHvp0eWJ6WkIoVFASQAAAABEyA0AAAAAALB1JrPsqbsaedeb2Vg129/kgPtKmp4fStZf8jKN6TQ7XL4aAAAAABIhNwAAAAAAwFZpttsHch0sc41M9mgTR5R/yU7d9mUWl7mGS4/p5gYAAACKQcgNAAAAAACwVezpUqulZ/8axtOCilkLMcaxuT1a8jKNySQ7KKIeAAAAYNsRcgMAAAAAAGyJVic8livkXW+yfpqeHxVW0BpJ09g36dlSFzH7taByAAAAgK1GyA0AAAAAALAFQgjBfYlzoc3itL50N/Naq9eT4+XGlnuv1Qq9ouoBAAAAthUhNwAAAAAAwBb4fZo9XKaLW7JnFzHGoupZRzHGsWTLdXMr6xVRCwAAALDNCLkBAAAAAAC2gJkOcq+VnY6G8aS4atbXaBhPlunmdtPDAssBAAAAtlK97AIAAAAAAACwWs12+2CZLu5p3Z4UWM76M3sh9+e51rpCCCHEDeiKDyGE6VTBfRYkSTVrWKbG1X/3RGPNfOyJxonXxvW64ib8vlfl0+fTzML1/371fJrVoiTV6xrMpwsA6yeE0JhMFDyZhav7xl/e8+5x/u9r0V3jnR1F3vOr95fX5tN7u3vkvg6gCqzsAgAAAAAAALBazXbnfe6Q23QyGp5v9VncnwohNKYzf+/ujTzrE/NHw+HwpNiqVqvZDF3Vsp5cP3umntkyo+81cFm0xN9plvRHozgoqMy1EUIIkyzbW/b5NNPY3QYyH7j83Xe1Wr+MEDCEEJa9xmSWPZbrcJE1Ljv97hY24RQR4uV5jjYlPJyHprM9Jfaz3Lpm3nX/IzRdRFXe80ULITSkhZ+TcRG/91Yr9DzJup7ZL3LvLno/uv6amCdv0jT2l60JAG6CkBsAAAAAAGCDtVqh58re5l0/qyf3t/0s7s9ptu69lbyXa/EabBwIITSmU3Xdsocm7eUNpG7EFCX1Xf7mX8Ph6coep2StVuhlyn6R62DJTQLfYH1Z9mpnHv7F1T3OH5rNznut9PdULlOyu0xw91MIoTbN3i+6bqee3F/XoLvVCj237FfPtLfa97skWV+Jv9lJktP1fb46Ry49XWSNyfpperab7/Hmr49JB4Xf3y/v6ebJKwJvAKvEuHIAAAAAAIAN5pY9lOdcbDoh4P6CxN4oyxlyu3ULraVAzRC6mmUPp7PswKWGXLnfPjc2nzJwYLKDZrsTJfV3asmzdQ2rPjXfaOJPXVnPpFtoO/Ke3HqTaaZmu3NC0ITbEkJo/D7NHst14MqCXLJbabPznjL1Jln2vNnqDGT+YqdWO92EDu+iXb8frez+fnlPd2UHzda9vix7NVqz6SUA1kNSdgEAAAAAAABYqV7ehbNa8qzAOjbKLNFp/tUeiqqjKK1W6DVb995qmv0m1+FKO7e/xhXkOphMs/fNdudlEWOwy9Jstw+a7c77+SSFnBsiljUPG982W/fetlqhnBqw8UIIodnuvJzOsvcmHa2+c/urunJ7OZllv637PaRIV/f4278feU9uL5ute295LQAUjZAbAAAAAABgQ7VaoZf3LG6T9eni/rKLGKOZjXMub1Tlw/4QQign+LiBNQ27myF0m617b+X2Mu+fv+J5z5W9XbfnEtV2FW5Pptl7+QrGXi/j2oaZu63O021934cQGs1253n593jvXd7Pn1+ePw4AS2NcOQAAAAAAwIZaZlS5m70qtprNkw7P7pRdwzJanfB4OsuOpAoFU58zD6r27rY6x/9Kzys9XaDVCY99mh2XXccXuQ4ms6zXbLefMT4YeV2NJZ/OskNVKdj+ApOOJrPsYNve980QupNZ9ro6m20kuQ4ns2wvhLC7KUdSACgPndwAAAAAAACbq5drlVkcDeNJoZWgMj52b2fZcaU6L7+uYdJRs915X8WOzBBC426z89KzCgfcV1xBbi+b7c7zskvB+mm1Qm8yy34z6WiN7h/X3/eVvIcUrdkJD22Wva1UwH3FFSbT7Ld/NDuHZZcCYL0RcgMAAAAAAGygEEI3/4fb3i+yFlTH3XZ7bzrLfqvcaPKbugxHmu32QdmlXAkhNCbT7K2ZDsquZSGuw2ar8xujg3ETfxp7XcXg9Kbm95D3d1udp2WXsirNTnioLDup+CaERmJ6vsmvA4DVI+QGAAAAAADYQJPZrJt3rSt5U2ApqIi7rc5Tc3td8eDjJhpye1mFcOQq4JbULbuWnLqTafaWoBtfE0IIk1n2m1yHZddSlMvJEC837b1/t93eU5adlF3HTZl0VIV7OYD1RMgNAAAAAACwgUzJr3nXfldTv8BSUAF3W52nJh2VXUeRqhCOTGbZU61vwH2l+/vUX5ZdBKqp1Qq96TzgDmXXUrj5GfW/bcr48hBCSGRr92fZpCNGlwPIg5AbAAAAAABgA7m8m2edyfoxxnGx1aBMqw64zWwsVzRZ/9O/5Iqrelyp3KD7bqvzdBWdrV96Plf5XJp8jzO68alWJzx2ZW83YPrDl7nCZJa9bTZDt+xSlhFCaExm6/taJabn6/4aALh99bILAAAAAAAAQLEuRyiHfKv9XaHFoFRFB9xmNpbUd7N3lmlQr2twk00RzRC6NlVDynqS/eIFngl+GXTrX+n5s6Ku+S0hhDCZZkdFXMtkA5e/Syzp12r65iaTZghdzdQ1+a+Seu7eKKIOuQ5brfAmTWO/kOthrd1tdZ56Vsx7/Itc0RIbuPuZSWN3jx//W63WsCxruNQw2c+SGnk3b92gjiDL3jabYXc0ioOVPMaKTWbZ00K67S9fE5OP//yvrSFXQ6ZuYfecTyXZ6xDCAzbaAbgpQm4AAAAAAIANM50uMz456RdVB8pVZMBtsr5kz+q1m4XanxrFj8FRX5J+CiHUZuqZ+8MiAu/Lcbf/839H58fLXusmLseUL8d0Yp68WjRUvnwuB5JOJKnZDgdFPY9u2ctcIVMteWFZ1ljqsWW/aPHfw8CkN8s87k1M66udSFA1q5r+ML+P+Dsp6d90g8x1IYTGbKZepmxPsl/kHgosr7GuQfflppvDPGvzvCYf79/yX919L8/jfta8q/6ppCeFXRPARrOyCwAAAAAAAECxmp1wqCzLNXp4p57coYtq/bVaoefK3i59IdPJrJY8u4gxLl/V57VaoSf500K6uz15sOqA6jJQep//CjYw2ZOiO6ZbrdBz85fLBn8mPUvT86NCilpAq9U5cmmxzQOmk9Hw/NGKSirMTyGEWo73zE49uR9X+Gfvc+6223vm9rqo683H7/uLej05Kfr3Mn/PZwdyPSzsoqa4U0t2b/t5z/P+N1k/Tc92m617bxfeIJJzk82n5oF3dlTka2BKdpkoAeAmOJMbAAAAAABgw1iWd1S5xgTc6y+EENyyl8tcw2R91ZMHo+H5o1UG3JKUprGfpme7suSRzJZ7rPm420YhhX3Bkl3cL0bp2YNVBDhpGvuj4dn9ZZ9Hl56GEEJxlWFdhBBCIlvq3nHFzMYmPavX7H6anh+tIjSev+fPD2b15L5Mrwq56OUZ3au+jxTlcpNQ76a/3sxOZ/Xk/mh4/qiI+9BFjLHo18Dly0/KALAVCLkBAAAAAAA2jM/PL12YyQYFl4ISLHs267yT92z32ojxWzEaxpNZzXbN7DT3Rf4Yd7tKvTyLTHo2Ss8Piy3lr66eRy3x5znv6GOsrxBCmMyyt+5qFHC5F9fC7XEB1/uq60HrUvePK67w+9QLCftXzvzxzX6dRVOymw7P9lexcenqNTDp2fJX816z3T5Y/joANh0hNwAAAAAAwIYxeSPPOpf/s+BScMua7faBXAd51s47L5PdMkZVX7mIMabDs/2lghLX4by7sXitVujl2UAwHyt8flR4QV9wEWMcpWcP5Lk7Kx+uSycrirHs5hhJH4PUUXp+WMZUkKv7h5LkiZkt9fgm3/tHs3NYTGWr4aZwozOxXa92araSCRKfStPzo8SS/WWff7ndLLwHsNUIuQEAAAAAADaMS92cC2OhheBWzUdMW64uZjMbe80qcw5qmp4fLRN0r27cbbaXZ9W0bqWcGz0anR/k7OhuTCbZQbHVoKqW2RzzBxvMKnIPGZ3H42nNHix7/EFiFR/d7x6+9UtMejYanR/c5qaD4TCeym1/yct0V7VZCcDmIOQGAAAAAADYIMt0X3qSxOIqwW3L24l5FXDf9njyb1ku6PbeKgKSXEcBmE5Wfa7518zqlq+r0uzX4qtB1SyzOeYj16uduu2W+T7/1EWMcVaz3SWD7sZkXcaWf8b86InzozIeO01jX0nyZJlrcDY3gG8h5AYAAAAAANggH5T/PNXENS6uEtymEELI24npmT+rWsB9JU3Pj/KO3HbLig+nbtA5+ZclSt4UXscCLmKMcn+x+ErvMbJ88y09ptz16rY7hW/qIsa4U7MHy5xPv67nQ5cZcF8Zncdjk3Lce65wDwLwdYTcAAAAAAAAG6Q+zR9WOCH32prMsrwdby9Go/PjImsp2s5OcpirG9MVCu/mtsX/fH1XU7/QGnKo15PjPN3cv8/UK74aVMUym2PmbDAfiV9dMcbxrG77S3V0uz1fq7DVdFJ2wH2lXk+OlnnuOTYBwNcQcgMAAAAAAECStLNDyL2OcgdVZnGnnhwVXU/RYoxj83xnWhc57vannGfzVqHDNcY4lvvCHfGJZ90VlIOKWGJzjGQWZ/Wlz12+FVejy3ON7Z9rTKfZYYElrY5Z3KktNya8SMvcvyVxbAKAryLkBgAAAAAA2CBms0betbFC56ni5vIHVfasCgHsTaRp7Ocbe7uas7lvzBRLe+y/SE4XXeGmeysoBBWwbBf3rFatM7i/5SLG6GbP8q536fE6dHOb26Oq3dfTNPYl6+dbzchyAF9GyA0AAAAAALBBsiz/mdxYW72FV5hORsN4UnglK1SvJ0d5OjFd2V7x1dz4wRulPfYn6nUNFl7k1i28EFTCMl3cJj1bp4D7yug8HpvZac7l1e/mNp3MA+XqMeXfYDCdqltgKQA2SL3sAgAAAAAAAICbCiE0JpPZXhmPbVaL7hqPRnFQxuN/TrPdPpAvfk70rJbkDhzKEmMct1qdV5IeL7j0oaTD4iu6kUYIoVGFzsr583ev7+7hpmvMOMJgE4UQwmSa86xjs5gOz44KLegWTWv2pD5Tz90bi671+b3nqPCiClLl+3qaxn6rfW+c63mfH5vQL7omAOuPkBsAAAAAAABr44PUqJm9LOOxXZlkUqvdGbvbQJa92qnV+mWOeTclv7p8wTXWX8cuzLnkVMoWDbkbrVboLdvheBFjbLY6C6+bTBSkHF3UK5CmZ7tl14DyTWaznmQ5V+fvyK2Cixhjq9V5ISlPJ3sh95KVMJ1U/r7unut5d1NP0nHR5QBYf4wrBwAAAAAAABbgrobkPbm9nEyz981252UZ5z6HEBruvrfoOjd7tYJybkXes12LGlmeZ1y6WYnj0oHPMLdFN4rM18n663bMwefU68lxnj/LkuSWPSy4nEJUuYv7D0k/zyoz/VxwIQA2BCE3AAAAAAAAsAzXgSt722zdextCCLf1sLPZrLfwIrO47iGVyd/lWPVLEY/tmY8XXmOqZCiG7RRCCK68Zxyvdxf3lRjj+LKreHGuvRBCo9iKlrMu0znSNPZzbS7IcSQHgO1AyA0AAAAAAAAUwnuTafb+bquTZwzuwjLZr4uv8n7hhdy6PN2A3i0imLLEBos/tMI/mp3DZR8bKMIk016uhWaxkmO6c1qim7sxnebdJLAaazado59n0W1uIAOwPgi5AQAAAAAAgAKZdNRsdX5b9Yfy5osHLa7kzQpKuVX1er7zrQsJptzP8ixLTE+bzbD84wPLyjzH5hhpU7q4r8QYx+757iVFHX9QlFktX3Bcipz3UAD4HEJuAAAAAACADZIkGuddW7URrGuuO5llKxtfHkJo5Bk5/N06hSFfEGMcmxYPp9yz7vKPnpzmXNiQZW/p6Eb5vJdn1VoFqTdkeYN7U86NAsVbl1HlV9x9kGfddMrIcgB/RcgNAAAAAACwQdxr4yWWNwoqA5LkCqsKuvN1JdsgxjguupYyuOmfCy9K9POyj1uva5BzxLEkNRLT82a785LRuyhDqxV6edatW5B6U7n/PLtCVf4Mu3zxe2GJzGqx7BoAbA5CbgAAAAAAgA1Sr+fv5J5MCLkL5wqTafa6+C75rLfwEsvXQVdF5oqLr7Gw7OMuM+L4I9fBZJq9b7Y7LxlhjtvkSb6R/e6+9sccfM7lpp9+nrWz2axXZC15uSX9smtYxLS++L1bksxmodhKAGyCetkFAAAAAAAAoDgfpHEt51pPFJRjDDS+qTuZZU8lPSnsimY/y32xJbJGs9k+KKyGMuX4/bt5KOShZc8858jnP3EdyLKDZrsTJfUlf6esNhiN4mDpawOf41nOaQbrFaQuws3eyX1v0XWZW7f4ahZnWb7QGAA2ASE3AAAAAADABrmIMTZbnVxra5o1iq0GH7kOW63wJk1jv5DL+eJd9+6+J7O9Ih6/bL5gwD1fVMykgjSN/Wb7XpQXE5rLFSQdSHYgy9Rqd8buNpD5QKYzy5JBva4YN3BcNG6ZW5AW/rMz3uSNFzuJ+pNs8XWuapwRvW6vzTLfowDApwi5AQAAAAAANoyZjd29sei6qnSmbSq37GUI4UER52KbqZsn591yjaIuZG6PXP62qOtdN9/A4D25enLJlWkylS6DoYHLYiL/Z2Y+sKwW1y3kQnny3DdMNlhJMdUR8ywyU86u+EKNyy4AAMpEyA0AAAAAALBp3KOU4+xV0/8pupRVMFn/lh6qIVPIs2Hgs1xhMskOJB0vfamiatoyIYRQREd0msZ+q33v1HOMOV5S1+Rdl/bMTbLsY/gt00Cmf2qW9Am+8Tl57hsu/+cKSqmMGOO42exE2YKd2QVNhliOxbIrAIAyEXIDAAAAAABsGDf9U54j5F6DTu6LeUC5e5uP+VMIoTZTT/KnS4+oNvtVS4bcP4UQNM0xXxeFqtfs0WSmbmFjy5fTlasrl65GnmdufbPszU6t1mfUOfLeN2wLuoUtsYEv/ue4EUJoFDGZI69teG0A4GuSsgsAAAAAAABAsczzfvBdibCuci5ijKNhPBkNz+4rSZ4sdzXvNZuhW0hhKFWMcTyr2a6set2U7mqYfE9uLyfT7H2z1fmt2e48DyGEsmtDOerTfGdIm3kstpLqcfn/5FzaKLIOAMBiCLkBAAAAAAA2jLsPci5tEMB+3eg8HsuSR8tdJestszpvWAVJBXc+XsQYqxp0f6Ir1+E88L73ttUKvbILwnpwr8Wya1g183znck8mhNwAUCZCbgAAAAAAgA2zs1Mb5F2bJLNucZVsptEwnizV0Z3o5wLLwQJWMVr4Isa4U7MHMr0q+tqr4T1X9rbZ7ryks3t7mM0aZdewacwIuQGgTITcAAAAAAAAmyfmXZjJfimwjo01Oo/HkvVzLu8VVwkWMF7VhWOM49Hw/EBJ8mQNurrnXAeTWfb2bru9V3YpWL0syxfIeu7jL9aH++aPZAeATUTIDQAAAAAAsGFijGOTBjmX9wosZbMl9ibXOqf7rxS2+rBudB6P5+PL16Sr2xXM7fXdVudp2aWgmnZ2Nj/kBgCsJ0JuAAAAAACAzfQu1ypXYITxzewk6udc2iiwDNyU2/g2HuYixjganh/M6sl9mV6tQ2e3SUcE3QAAYJ3Uyy4AAAAAAAAAxXP3gcxyrZ1Msj1Jx0XWs6FiGQ9ar2s8mS68bCz3/OeIbwBPfHybj3cRY5R0IEnNELrK1LPMf5Wp6+6N26zlJkw6+kez8z//d3R+XHYtqI7pVEEl3etui5kFL7sIAMDCCLkBAAAAAAA20M5O7XQyzV7mWmz2qwi5vynGOG62Orf+uB+kcS3HutFoeFJ0LbiZUYwDzY8QOJakViv0PFHX3H+RK7i8W151f0hMz1utMEjT2C+7FhTLrBZd2cLrMmPyBACgmhhXDgAAAAAAsIGWO5fbeyGERpH1oDjfK9cZuQ1e0+pI09gfncfjdHi2n6ZnD3bqyR1TsqskeSLphcn68nK6Z13Za94rm6dez3e2dk2zRrGVVI+bQp519fpmd7gDQNXRyQ0AAAAAALC53kjq5lk4nWaHko4KrGXjhBAak+ninZHLijGOW+174xwjrxvKF5BjxWKMY0n9y7/+pBlCN5kpuGddmf18C53fjcksey7p0QofA7cs7wQIdwtF11I5bvekXAPLxwVXAgBYAJ3cAAAAAAAAGyvp513p0uMCC9lUoawH9mzx86V/n+Xb8IByjWIcDIfxNE3Pjz7X+W2yvpmNC31Q10GrFXqFXhOlujwjfmFuuldwKZVjWnjDkCSNLzenAABKQsgNAAAAAACwodI0LhN+NQi5vm42m4WyHtsSGyy8xrNe8ZWgDDHG8ceR5+nZbjo8m4fepldFPYZb9rCoa6Ei8ozAd+sWXkeFhBAanmviicWiawEALIaQGwAAAAAAYJO5v8i9VP60yFI2jZcZ/rifLb7Ifi6+EFRFmsb+aHh+MKsn9wsJu117nM29YSxPMOthk98H02m+CReuPPdgAECRCLkBAAAAAAA2mNeT0yVW9+jm/jKX/VLaY7sPcqzqFl0Hqucixjganh8oSZ4seanGbDbbK6ImVIPJ/5ljWSNvELwOPMn3e0ukQbGVAAAWRcgNAAAAAACwwUYxDiTr511PN/fnzTsbvVfW4892av0cyxhBv0VG5/FY9eTBMud1ZyVu5EDx8m2OkaQNPuog81/zLUz6hdYBAFgYITcAAAAAAMCGS8xyjyyXvHe33d4rrJgNMSm5w/UixpgvvNzgsAp/MYpxILf9JS7RK6oWlG9npzbIs67MqRWrtMxmpXqdTm4AKBshNwAAAAAAwIYbDuPpMt2cJnu+yWey5uLJw7JLkNRfdIFLj1dQByosTWPfpGe5Frs2+jzmbRNjHOT7WuC9TXwf5N+sZIMY47jIWgAAiyPkBgAAAAAA2Abu+bu5XWEyyxhbfimEEMocVX7Fzd7lWMbI8i1UryfHeTe6TCYKxVaDkvXzLJpOs8Niy6iA3JuVPM+9FwBQMEJuAAAAAACALbBMyCVJch0Sjs5VJfCfJTrNs45z1rdPjHGcd6NLksy6BZeDEuXcHLNxUyCW2axkSk4LLQYAkEu97AIAAAAAAACwejHGcbMTnsn9ed5ruGUvQwgPtnlMa7sd9jLPDsquQ5qfy91s3esvHtR4L4QQYoxxBWXdmrutzlOT9RZZ49L4X+nZQmdUN0PoarrgnxvLXo2Gw5OF1qxc0pcW36CRZdYovhaUZSfRySRTnq8Djbvt9t6/hsPTomsqQ+7NSmYxHcZ+sdUAAPIg5AYAAAAAANgSo/N43Gzfeyz3kOsCrjCZ+mtJu4UWtiZCCI3JLMu9SWAVTP7Opd6i6y4DnkfFV3R7zHSw6Hs5kfUXfZyZNK4tvJHAoqSTRR9rldI09putzsLrzNQovppiuOtO2TWsmxjjON/mGMk8eSzlmyBRJSGEMJnm3azk/SJrAQDkx7hyAAAAAACALWJuSwab3mu2O5UKem/LZJY9lVfrfOJ6PTnOtdB10GyGbqHF3KJWK/TyvRaLn6X7vTRe/GEsLLzmNrji4kuqG3Insv9Tdg1rKbE3+RZ6r9luHxRaSwmWOXLCPHlVZC0AgPwIuQEAAAAAALZImsa+mZ0udRHX4d1WZ6vOdb7b6jyV67DsOj41Hx2/eHeyJMnyj64vm1v2MN/KpL/oivl51ouGw95d9HFuhVlcfI1uJUj2JBkvvMZyTqXYcjuJTsxsnGux2/MQQqPQgm5RCCHIdZBrsVlMU0aVA0BVEHIDAAAAAABsmXrNHuUOOC6ZdPSPZuewmIqqrdkJD006KruOLzHZs3wrvbeOr+ESIdU4b0BliQ0WXNJotUIvz2NtrdlsvPAar26XeZXNN274i5zLG8t0QpdtMsve5l+d914LAFgFQm4AAAAAAIAtE2Mcm5YdWy4lpueb3tHd7ISHyrKTsuv4mnlwm6+bOzE9DSGEQgtasbwBm0sLjyr/Y7GfLf542V7ux1sRkzcWXuNa+Peex85ObZBjWWOdx+6XaVpPTnIvdh3ebbf3CivmllxO5Ai5FpvF0TCeFFoQAGAphNwAAAAAAABbaDiMpybl7eT7yKSjTQ26W53w+FsB97Id8UXJ382txmSavV6X8cPLjBo2S07zP3KutQ+r9LyGEBoudcuu40s+5Dn7XJKU9YqsY1tcxBhlyn2+tLm9XKcNMs0QustN5KCLGwCqhpAbAAAAAABgS9XryZG08BjmvzDpqNnurO35zp/TbHeee5Ydf+vXuWuw+mq+bZlubkndySxbi9cv96jhJbsw63UNcmxoaEyn2WHexyzabDbr5VmXWTIotpLPu4gx5to0YvZr8dVsh1ktOVpio05jMsverkPQHUIImmWvc1+ALm4AqCRCbgAAAAAAgC0VYxzP6rZfSDey67DZ7rxfh8Dja0IIodnq/CbX4U1+/axC3X1LdHNLroOqd+QvM2rY3HN3rErzPyt5NjS49Lgq3dyu5GGedZYpFlzK1/QXX+I9zj/P5yLGuMTZ3JIrVH0SRAghTGbZ29xjyiXRxQ0A1UTIDQAAAAAAsMXmIYftF3KxeeDx2z+ancNCrnfLWp3weDrLftMNRzqb9Ez1Ww0AvypNY3+ZEfRV7si/2+o8zT1q2Cwudf7wFc/yBOWNvGeIF6ndDnvuvpdj6Xg0ioOCy/kiN8t1brrLS3+O11W9nhzLLC5xie5klv1WxQ1OhQTcphO6uAGgmgi5AQAAAAAAtlyaxr6S5ElBl2skpufN1r21GGMrSa1W6DVbnd88y47d1bjRoqKC04LV68nRUoGV6/Bu616lOjNbnfB4mbN0zf3VRYxx2Tp2dmqnuaYeuA7L3PgRQgiZ8o2jtwKOM1jETpKnk1uSvLeum2vKFmMcm9ujpS7iClUbXX633d6bzrLflgu4Lc5qCV3cAFBRhNwAAAAAAADQ6Dwem1Tgh/nem0yz981252WVgo/r5uH2vbeu7K1u2L39B3tWRHBatCICK5PvVaUz826r8/QmZ6N/kVlM0/OjImqJMY7zjnZOTM+bnZBrXPgyQgiNyTR7nTfoc7OlxrwvKsY4yHu2fGJ62myGbqEFbYllp0BIuprk8b7szQYhhEaz3Xlubq9vvGnpi6p5nwcAzBFyAwAAAAAAQJKUpudHxQbdklwHV2F3FQKoEEKj2ekc/hFue2/hi1R8fG2RgVVZ53TPz0a/93aZDu65Ys/SrdeT49xn2GfZyW0GgCGEMJnm2cDxh1ktb2d1fibPNbJcUkOWvb3bbu8VWc+2SNPzQxXQuV/mJI9WK/Qm8+7tw2WvZdKzKt/nAQCE3AAAAAAAALhmJUG3JLkOZNlvzVbnt2a7fXDbAUirFXrNduf5dJa9V6bnucJtaW3G114GVv1lr3N5Tvf7Zrt9sHRRNxBCaNxtdZ7Oz0bP+Rr94UXRIdUy3dzSZQB4C9MNWq3QW+R8+c8ynZTRxbrURgKpYW6vqzxBospmddtf8nzuS7c7yeNPUzmWGU/+kQ2KmgABAFgdK7sAAAAAAAAAVE+r1TlyacVdvNafd20m/XpdgxjjuKgrhxDCZDLrKbFfTNpbfmytZGbjac0eXA/+fgoh1KbZ+0WvNUrPV/653E8hhNrM38o9FHJBU5T82U6tdlrkayXNQyq37FeTDop4rWQWR8Oz+8tX9lchhMZ05u/dvZH7IqborpPv6smrWGCQ3GqFnsufFrBBQLN6cr+sUc2F3X9MJy5/812t1i/6PbuIvPeJnXpyv8j3x000Q+jazN8u9f7+hMtOZdmrfw2Hp0VdM4TQmGTZgTL7tYj3+0dmcVaz3dt+7+d5z5usn6Znu6uqaVWarY4vuiYxfzQcDk9WUA6ANUbIDQAAAAAAgM9qt8Oey18WGXZ8w8BlMZH/092jWS26a7yzo7EkXYU91zsDp1MF91lQzRpy/Sy3YObdQoLST5iS3TSN/ev/rsoht7SCoPuSy07Nsjc78/AwLro+hND4fTbrmewXz7RnVkT35aVbCKna7bCXefa6kIuZTiR/l3fzQAihMZnM9mTJw8LCPtPJaHi+1NnuyyhkI8En3BUtb5ey25PRKA7yPvY6hdxSwe/va8w0ztz6ZtkbZbXBIs9pCKExnarrSdYtPNj+o8BSAm6JkPtbCLkBfA4hNwAAAAAAAL5oVSHpukkseTT8zOjrqofc0i28hqYotyjzgbn+xxONNfPxx/9sFtz0fyQ15OqaKaxiE8LlY/2l235VWq3OsUuPC77sXzZ6fPoL/rypQ10tM5L8c0oM+q5bVdCax+c2uCxi3UJuSWq2w4E8e3kLDzWQbCzzePnPY+na/cEtuHsodCPM55T8vifk/jpCbgCfUy+7AAAAAAAAAFTXRYzxpxB2azM/kuth2fXcNjMbm+zJ5wLudfHHa6jVBN2uIHmQq+eSlEkyu/afr/7n8p8XjjduxszGfoshVZqeHzZb936RvFvgZbsm77q0JzO5sr/+CjN97l8XxWVPyg64JWk4jKfNZueVbPvuO1UwGsaTdjuMb2GaR1fyP90j/syv305WoyIbOwAAi0nKLgAAAAAAAADVdhFjHA3PD5QkT8xsXHY9t8Yses121zngvnIRY5zVbFd5xzVX3FXAPYr5R0rnMavb/iY9pyY9+9cwnpZdx5WdneRwk57fdTMcxlPf4PvGnA0IuAFgPRFyAwAAAAAA4EZG5/F4WrMHZnZadi2rNw8+bjs0XaWLGOPOJr5+ZnFaswdlvFabtHnApGdpen5Udh3XxRjHm/L8rqtRjIMNfg1e7NQJuAFgXRFyAwAAAAAA4MYuYozp8Gxfljza0NBDkl6M0rNbOdf5tsUYx+nwbN+kZ2XXUgQzO925pTO4v+Rj0C0blFXDsqoYcF/ZpI0E62o+zePs/gbdN8ZyPRml54cxxnHZ9QAA8iHkBgAAAAAAwMJGw3jyMfTYlPDJLJqS3VF6flh2KauWpudHs3pyf11fu6uQKh2e7VchpLqIMY7SswcmvSi7loW5nlQ14L6yCRsJNkGanh+ZkrXecGCy/rRmD0aj8+OyawEALIeQGwAAAAAAALml6fnRrGa76xx2m9nYpGej4dn9NI39suu5LevanWlmp1UNqdL0/HBtphxcbeqo4PP4Odc2EqzV+3XTpGnsr+l9Y74xJj1jPDkAbAhCbgAAAAAAACzlIsaYpudHOzV7sDYBn/4It+s1u1/1TtZV+qOrW6/KruVrTNY3Jbvp8Gy/yiHVaBhP5uO1q/t8mvRsp2YP1nFTx9X71WT9smvZZmtz37h2n1+XDR0AgJsh5AYAAAAAAEAhYozjP8aYJ5UN+T4Nt6sw7rps867u84MqhlYfw+30bHddQtnrz2elwljTyayerP37fr6x5mzXlOxW6vndMp/eN8xsXHZNV7jPA8Dmq5ddAAAAAAAAADbPZRjZDyEcTmbaM/mv7r5XZk0m63tib+qJTmI8G5dZS1Vddkgf/BTCUW2WHUn2i9zDbdcxHy3sL+r15Hidw6nL53O3GUJXs+xQroe3XcOmPJefc3Wf+SmEUMu0Z5k/dHm35LK2zrX7RqjNrGfuD13eK6MWk/Uzy17s1JI+93kA2GyE3AAAAAAAAFiZy1Dt5PIvtVqh58r2TPbzqkOQyzNYB57Ym51EJ5sW8K3SVWglXb5mlh2sOvCed+T6Oynpp8P16Ni+qVGMA0kH1zd9SOq5e2MlD+iKMr0xJaeb9lx+zuX79VjScQihMZup5551ZfazXA13D5ZYY2XPNyR9fB1OJJ3MA2/1zP2hTN1VPfeX3eN9N3vHfR4Atsv/D0LNsCgEkWkHAAAAAElFTkSuQmCC;" vertex="1" parent="1">
          <mxGeometry x="130" y="-860" width="84.32" height="30" as="geometry" />
        </mxCell>
        <mxCell id="GUjsyFHACSfxRPO5kIcC-5" value="Selectionner le fonds" style="rounded=0;whiteSpace=wrap;html=1;" vertex="1" parent="1">
          <mxGeometry x="350" y="-860" width="170" height="20" as="geometry" />
        </mxCell>
        <mxCell id="GUjsyFHACSfxRPO5kIcC-8" value="" style="rounded=1;whiteSpace=wrap;html=1;" vertex="1" parent="1">
          <mxGeometry x="440" y="-550" width="340" height="210" as="geometry" />
        </mxCell>
        <mxCell id="GUjsyFHACSfxRPO5kIcC-9" style="edgeStyle=orthogonalEdgeStyle;rounded=0;orthogonalLoop=1;jettySize=auto;html=1;exitX=0.5;exitY=1;exitDx=0;exitDy=0;" edge="1" parent="1" source="GUjsyFHACSfxRPO5kIcC-2" target="GUjsyFHACSfxRPO5kIcC-2">
          <mxGeometry relative="1" as="geometry" />
        </mxCell>
        <mxCell id="GUjsyFHACSfxRPO5kIcC-10" value="Allocation intiale" style="text;html=1;align=center;verticalAlign=middle;whiteSpace=wrap;rounded=0;fontStyle=1" vertex="1" parent="1">
          <mxGeometry x="205" y="-540" width="110" height="30" as="geometry" />
        </mxCell>
        <mxCell id="GUjsyFHACSfxRPO5kIcC-11" value="Allocation finale" style="text;html=1;align=center;verticalAlign=middle;whiteSpace=wrap;rounded=0;fontStyle=1" vertex="1" parent="1">
          <mxGeometry x="555" y="-540" width="110" height="30" as="geometry" />
        </mxCell>
        <mxCell id="GUjsyFHACSfxRPO5kIcC-18" value="" style="rounded=1;whiteSpace=wrap;html=1;movable=1;resizable=1;rotatable=1;deletable=1;editable=1;locked=0;connectable=1;" vertex="1" parent="1">
          <mxGeometry x="90" y="-320" width="690" height="620" as="geometry" />
        </mxCell>
        <mxCell id="GUjsyFHACSfxRPO5kIcC-20" value="Graphique volatilité" style="rounded=0;whiteSpace=wrap;html=1;" vertex="1" parent="1">
          <mxGeometry x="170" y="80" width="550" height="190" as="geometry" />
        </mxCell>
        <mxCell id="GUjsyFHACSfxRPO5kIcC-21" value="3M" style="rounded=1;whiteSpace=wrap;html=1;" vertex="1" parent="1">
          <mxGeometry x="392" y="-255" width="40" height="20" as="geometry" />
        </mxCell>
        <mxCell id="GUjsyFHACSfxRPO5kIcC-25" value="2Y" style="rounded=1;whiteSpace=wrap;html=1;" vertex="1" parent="1">
          <mxGeometry x="438" y="-255" width="40" height="20" as="geometry" />
        </mxCell>
        <mxCell id="GUjsyFHACSfxRPO5kIcC-27" value="" style="ellipse;whiteSpace=wrap;html=1;aspect=fixed;" vertex="1" parent="1">
          <mxGeometry x="320" y="-210" width="55" height="55" as="geometry" />
        </mxCell>
        <mxCell id="GUjsyFHACSfxRPO5kIcC-28" value="" style="ellipse;whiteSpace=wrap;html=1;aspect=fixed;" vertex="1" parent="1">
          <mxGeometry x="407.5" y="-195" width="55" height="55" as="geometry" />
        </mxCell>
        <mxCell id="GUjsyFHACSfxRPO5kIcC-30" value="" style="ellipse;whiteSpace=wrap;html=1;aspect=fixed;" vertex="1" parent="1">
          <mxGeometry x="495" y="-210" width="55" height="55" as="geometry" />
        </mxCell>
        <mxCell id="GUjsyFHACSfxRPO5kIcC-31" value="Volatilité&lt;div&gt;initiale&lt;span style=&quot;color: rgba(0, 0, 0, 0); font-family: monospace; font-size: 0px; text-align: start; text-wrap-mode: nowrap; background-color: transparent;&quot;&gt;%3CmxGraphModel%3E%3Croot%3E%3CmxCell%20id%3D%220%22%2F%3E%3CmxCell%20id%3D%221%22%20parent%3D%220%22%2F%3E%3CmxCell%20id%3D%222%22%20value%3D%22%22%20style%3D%22ellipse%3BwhiteSpace%3Dwrap%3Bhtml%3D1%3Baspect%3Dfixed%3B%22%20vertex%3D%221%22%20parent%3D%221%22%3E%3CmxGeometry%20x%3D%22375%22%20y%3D%22-280%22%20width%3D%2255%22%20height%3D%2255%22%20as%3D%22geometry%22%2F%3E%3C%2FmxCell%3E%3C%2Froot%3E%3C%2FmxGraphModel%3E&lt;/span&gt;&lt;/div&gt;" style="text;html=1;align=center;verticalAlign=middle;whiteSpace=wrap;rounded=0;" vertex="1" parent="1">
          <mxGeometry x="320" y="-240" width="60" height="30" as="geometry" />
        </mxCell>
        <mxCell id="GUjsyFHACSfxRPO5kIcC-32" value="Volatilité&lt;div&gt;finale&lt;span style=&quot;color: rgba(0, 0, 0, 0); font-family: monospace; font-size: 0px; text-align: start; text-wrap-mode: nowrap; background-color: transparent;&quot;&gt;%3CmxGraphModel%3E%3Croot%3E%3CmxCell%20id%3D%220%22%2F%3E%3CmxCell%20id%3D%221%22%20parent%3D%220%22%2F%3E%3CmxCell%20id%3D%222%22%20value%3D%22%22%20style%3D%22ellipse%3BwhiteSpace%3Dwrap%3Bhtml%3D1%3Baspect%3Dfixed%3B%22%20vertex%3D%221%22%20parent%3D%221%22%3E%3CmxGeometry%20x%3D%22375%22%20y%3D%22-280%22%20width%3D%2255%22%20height%3D%2255%22%20as%3D%22geometry%22%2F%3E%3C%2FmxCell%3E%3C%2Froot%3E%3C%2FmxGraphModel%3E&lt;/span&gt;&lt;/div&gt;" style="text;html=1;align=center;verticalAlign=middle;whiteSpace=wrap;rounded=0;" vertex="1" parent="1">
          <mxGeometry x="495" y="-240" width="60" height="30" as="geometry" />
        </mxCell>
        <mxCell id="GUjsyFHACSfxRPO5kIcC-35" value="Delta&lt;div&gt;vol&lt;/div&gt;" style="text;html=1;align=center;verticalAlign=middle;whiteSpace=wrap;rounded=0;" vertex="1" parent="1">
          <mxGeometry x="405" y="-225" width="60" height="30" as="geometry" />
        </mxCell>
        <mxCell id="GUjsyFHACSfxRPO5kIcC-38" value="" style="endArrow=none;dashed=1;html=1;dashPattern=1 3;strokeWidth=2;rounded=0;entryX=0.71;entryY=0.662;entryDx=0;entryDy=0;entryPerimeter=0;" edge="1" parent="1">
          <mxGeometry width="50" height="50" relative="1" as="geometry">
            <mxPoint x="428" y="66" as="sourcePoint" />
            <mxPoint x="447.9000000000001" y="66.30000000000018" as="targetPoint" />
          </mxGeometry>
        </mxCell>
        <mxCell id="GUjsyFHACSfxRPO5kIcC-39" value="Possibilité de changer de vue pour avoir une vue en tableau" style="shape=note;whiteSpace=wrap;html=1;backgroundOutline=1;fontColor=#000000;darkOpacity=0.05;fillColor=#FFF9B2;strokeColor=none;fillStyle=solid;direction=west;gradientDirection=north;gradientColor=#FFF2A1;shadow=1;size=0;pointerEvents=1;" vertex="1" parent="1">
          <mxGeometry x="575" y="-130" width="90" height="75" as="geometry" />
        </mxCell>
        <mxCell id="GUjsyFHACSfxRPO5kIcC-40" value="" style="rounded=1;whiteSpace=wrap;html=1;movable=1;resizable=1;rotatable=1;deletable=1;editable=1;locked=0;connectable=1;" vertex="1" parent="1">
          <mxGeometry x="-600" y="-320" width="670" height="640" as="geometry" />
        </mxCell>
        <mxCell id="GUjsyFHACSfxRPO5kIcC-53" value="" style="rounded=1;whiteSpace=wrap;html=1;movable=1;resizable=1;rotatable=1;deletable=1;editable=1;locked=0;connectable=1;" vertex="1" parent="1">
          <mxGeometry x="800" y="-320" width="690" height="600" as="geometry" />
        </mxCell>
        <mxCell id="GUjsyFHACSfxRPO5kIcC-66" value="Rendements" style="rounded=1;whiteSpace=wrap;html=1;" vertex="1" parent="1">
          <mxGeometry x="180" y="-300" width="80" height="30" as="geometry" />
        </mxCell>
        <mxCell id="GUjsyFHACSfxRPO5kIcC-67" value="Volatilité" style="rounded=1;whiteSpace=wrap;html=1;fillColor=#f8cecc;strokeColor=#b85450;" vertex="1" parent="1">
          <mxGeometry x="270" y="-300" width="80" height="30" as="geometry" />
        </mxCell>
        <mxCell id="GUjsyFHACSfxRPO5kIcC-68" value="Corrélation" style="rounded=1;whiteSpace=wrap;html=1;" vertex="1" parent="1">
          <mxGeometry x="360" y="-300" width="80" height="30" as="geometry" />
        </mxCell>
        <mxCell id="GUjsyFHACSfxRPO5kIcC-69" value="Pertes" style="rounded=1;whiteSpace=wrap;html=1;" vertex="1" parent="1">
          <mxGeometry x="447.5" y="-300" width="80" height="30" as="geometry" />
        </mxCell>
        <mxCell id="GUjsyFHACSfxRPO5kIcC-70" value="Stress-test" style="rounded=1;whiteSpace=wrap;html=1;" vertex="1" parent="1">
          <mxGeometry x="540" y="-300" width="80" height="30" as="geometry" />
        </mxCell>
        <mxCell id="GUjsyFHACSfxRPO5kIcC-71" value="Synthèse" style="rounded=1;whiteSpace=wrap;html=1;" vertex="1" parent="1">
          <mxGeometry x="630" y="-300" width="80" height="30" as="geometry" />
        </mxCell>
        <mxCell id="GUjsyFHACSfxRPO5kIcC-72" value="Graphique rendements&lt;div&gt;ancien, nouveau, benchmark&lt;/div&gt;" style="rounded=0;whiteSpace=wrap;html=1;" vertex="1" parent="1">
          <mxGeometry x="-495" y="-95" width="460" height="135" as="geometry" />
        </mxCell>
        <mxCell id="GUjsyFHACSfxRPO5kIcC-84" value="Rendements" style="rounded=1;whiteSpace=wrap;html=1;fillColor=#f8cecc;strokeColor=#b85450;" vertex="1" parent="1">
          <mxGeometry x="-530" y="-295" width="80" height="30" as="geometry" />
        </mxCell>
        <mxCell id="GUjsyFHACSfxRPO5kIcC-85" value="Volatilité" style="rounded=1;whiteSpace=wrap;html=1;" vertex="1" parent="1">
          <mxGeometry x="-440" y="-295" width="80" height="30" as="geometry" />
        </mxCell>
        <mxCell id="GUjsyFHACSfxRPO5kIcC-86" value="Corrélation" style="rounded=1;whiteSpace=wrap;html=1;" vertex="1" parent="1">
          <mxGeometry x="-350" y="-295" width="80" height="30" as="geometry" />
        </mxCell>
        <mxCell id="GUjsyFHACSfxRPO5kIcC-87" value="Pertes" style="rounded=1;whiteSpace=wrap;html=1;" vertex="1" parent="1">
          <mxGeometry x="-262.5" y="-295" width="80" height="30" as="geometry" />
        </mxCell>
        <mxCell id="GUjsyFHACSfxRPO5kIcC-88" value="Stress-test" style="rounded=1;whiteSpace=wrap;html=1;" vertex="1" parent="1">
          <mxGeometry x="-170" y="-295" width="80" height="30" as="geometry" />
        </mxCell>
        <mxCell id="GUjsyFHACSfxRPO5kIcC-89" value="Synthèse" style="rounded=1;whiteSpace=wrap;html=1;" vertex="1" parent="1">
          <mxGeometry x="-80" y="-295" width="80" height="30" as="geometry" />
        </mxCell>
        <mxCell id="GUjsyFHACSfxRPO5kIcC-90" value="" style="ellipse;whiteSpace=wrap;html=1;aspect=fixed;" vertex="1" parent="1">
          <mxGeometry x="-370" y="-165" width="55" height="55" as="geometry" />
        </mxCell>
        <mxCell id="GUjsyFHACSfxRPO5kIcC-91" value="" style="ellipse;whiteSpace=wrap;html=1;aspect=fixed;" vertex="1" parent="1">
          <mxGeometry x="-292.5" y="-165" width="55" height="55" as="geometry" />
        </mxCell>
        <mxCell id="GUjsyFHACSfxRPO5kIcC-92" value="" style="ellipse;whiteSpace=wrap;html=1;aspect=fixed;" vertex="1" parent="1">
          <mxGeometry x="-217.5" y="-165" width="55" height="55" as="geometry" />
        </mxCell>
        <mxCell id="GUjsyFHACSfxRPO5kIcC-94" value="Sharpe" style="text;html=1;align=center;verticalAlign=middle;whiteSpace=wrap;rounded=0;" vertex="1" parent="1">
          <mxGeometry x="-370" y="-200" width="60" height="30" as="geometry" />
        </mxCell>
        <mxCell id="GUjsyFHACSfxRPO5kIcC-95" value="Beta" style="text;html=1;align=center;verticalAlign=middle;whiteSpace=wrap;rounded=0;" vertex="1" parent="1">
          <mxGeometry x="-295" y="-200" width="60" height="30" as="geometry" />
        </mxCell>
        <mxCell id="GUjsyFHACSfxRPO5kIcC-96" value="Tracking&lt;div&gt;error&lt;/div&gt;" style="text;html=1;align=center;verticalAlign=middle;whiteSpace=wrap;rounded=0;" vertex="1" parent="1">
          <mxGeometry x="-219.5" y="-197.5" width="60" height="30" as="geometry" />
        </mxCell>
        <mxCell id="GUjsyFHACSfxRPO5kIcC-98" value="3M" style="rounded=1;whiteSpace=wrap;html=1;" vertex="1" parent="1">
          <mxGeometry x="-306" y="-245" width="40" height="20" as="geometry" />
        </mxCell>
        <mxCell id="GUjsyFHACSfxRPO5kIcC-99" value="2Y" style="rounded=1;whiteSpace=wrap;html=1;" vertex="1" parent="1">
          <mxGeometry x="-256" y="-245" width="32" height="20" as="geometry" />
        </mxCell>
        <mxCell id="GUjsyFHACSfxRPO5kIcC-101" value="Tableau id_inst, nm_inst, weight" style="rounded=0;whiteSpace=wrap;html=1;" vertex="1" parent="1">
          <mxGeometry x="120" y="-810" width="390" height="190" as="geometry" />
        </mxCell>
        <mxCell id="GUjsyFHACSfxRPO5kIcC-102" value="3M" style="rounded=1;whiteSpace=wrap;html=1;" vertex="1" parent="1">
          <mxGeometry x="1102" y="-250" width="40" height="20" as="geometry" />
        </mxCell>
        <mxCell id="GUjsyFHACSfxRPO5kIcC-103" value="2Y" style="rounded=1;whiteSpace=wrap;html=1;" vertex="1" parent="1">
          <mxGeometry x="1148" y="-250" width="40" height="20" as="geometry" />
        </mxCell>
        <mxCell id="GUjsyFHACSfxRPO5kIcC-104" value="Matrice de correlation" style="rounded=0;whiteSpace=wrap;html=1;" vertex="1" parent="1">
          <mxGeometry x="990" y="-122.5" width="310" height="190" as="geometry" />
        </mxCell>
        <mxCell id="GUjsyFHACSfxRPO5kIcC-105" value="Rendements" style="rounded=1;whiteSpace=wrap;html=1;" vertex="1" parent="1">
          <mxGeometry x="925" y="-300" width="80" height="30" as="geometry" />
        </mxCell>
        <mxCell id="GUjsyFHACSfxRPO5kIcC-106" value="Volatilité" style="rounded=1;whiteSpace=wrap;html=1;" vertex="1" parent="1">
          <mxGeometry x="1015" y="-300" width="80" height="30" as="geometry" />
        </mxCell>
        <mxCell id="GUjsyFHACSfxRPO5kIcC-107" value="Corrélation" style="rounded=1;whiteSpace=wrap;html=1;fillColor=#f8cecc;strokeColor=#b85450;" vertex="1" parent="1">
          <mxGeometry x="1105" y="-300" width="80" height="30" as="geometry" />
        </mxCell>
        <mxCell id="GUjsyFHACSfxRPO5kIcC-108" value="Pertes" style="rounded=1;whiteSpace=wrap;html=1;" vertex="1" parent="1">
          <mxGeometry x="1192.5" y="-300" width="80" height="30" as="geometry" />
        </mxCell>
        <mxCell id="GUjsyFHACSfxRPO5kIcC-110" value="Synthèse" style="rounded=1;whiteSpace=wrap;html=1;" vertex="1" parent="1">
          <mxGeometry x="1285" y="-300" width="80" height="30" as="geometry" />
        </mxCell>
        <mxCell id="GUjsyFHACSfxRPO5kIcC-111" value="Camembert Allocation intiale" style="ellipse;whiteSpace=wrap;html=1;aspect=fixed;" vertex="1" parent="1">
          <mxGeometry x="195" y="-500" width="130" height="130" as="geometry" />
        </mxCell>
        <mxCell id="GUjsyFHACSfxRPO5kIcC-112" value="Cambembert&lt;div&gt;Allocaiton finale&lt;/div&gt;" style="ellipse;whiteSpace=wrap;html=1;aspect=fixed;" vertex="1" parent="1">
          <mxGeometry x="545" y="-500" width="130" height="130" as="geometry" />
        </mxCell>
        <mxCell id="GUjsyFHACSfxRPO5kIcC-115" value="Qqchose pour modifier les poids&lt;div&gt;(assert sum(new_poids) == sum(ancien_poids))&lt;/div&gt;" style="rounded=0;whiteSpace=wrap;html=1;" vertex="1" parent="1">
          <mxGeometry x="540" y="-810" width="220" height="190" as="geometry" />
        </mxCell>
        <mxCell id="GUjsyFHACSfxRPO5kIcC-117" value="Histogramme contrib Vol&lt;div&gt;ancien, nouveau&lt;/div&gt;" style="rounded=0;whiteSpace=wrap;html=1;" vertex="1" parent="1">
          <mxGeometry x="320" y="-122.5" width="240" height="172.5" as="geometry" />
        </mxCell>
        <mxCell id="GUjsyFHACSfxRPO5kIcC-118" value="Graphique VL" style="rounded=0;whiteSpace=wrap;html=1;" vertex="1" parent="1">
          <mxGeometry x="-495" y="50" width="460" height="120" as="geometry" />
        </mxCell>
        <mxCell id="GUjsyFHACSfxRPO5kIcC-127" value="" style="ellipse;whiteSpace=wrap;html=1;aspect=fixed;" vertex="1" parent="1">
          <mxGeometry x="1027.5" y="-202.5" width="55" height="55" as="geometry" />
        </mxCell>
        <mxCell id="GUjsyFHACSfxRPO5kIcC-128" value="" style="ellipse;whiteSpace=wrap;html=1;aspect=fixed;" vertex="1" parent="1">
          <mxGeometry x="1115" y="-187.5" width="55" height="55" as="geometry" />
        </mxCell>
        <mxCell id="GUjsyFHACSfxRPO5kIcC-129" value="" style="ellipse;whiteSpace=wrap;html=1;aspect=fixed;" vertex="1" parent="1">
          <mxGeometry x="1202.5" y="-202.5" width="55" height="55" as="geometry" />
        </mxCell>
        <mxCell id="GUjsyFHACSfxRPO5kIcC-130" value="Correl&lt;div&gt;initiale&lt;span style=&quot;color: rgba(0, 0, 0, 0); font-family: monospace; font-size: 0px; text-align: start; text-wrap-mode: nowrap; background-color: transparent;&quot;&gt;%3CmxGraphModel%3E%3Croot%3E%3CmxCell%20id%3D%220%22%2F%3E%3CmxCell%20id%3D%221%22%20parent%3D%220%22%2F%3E%3CmxCell%20id%3D%222%22%20value%3D%22%22%20style%3D%22ellipse%3BwhiteSpace%3Dwrap%3Bhtml%3D1%3Baspect%3Dfixed%3B%22%20vertex%3D%221%22%20parent%3D%221%22%3E%3CmxGeometry%20x%3D%22375%22%20y%3D%22-280%22%20width%3D%2255%22%20height%3D%2255%22%20as%3D%22geometry%22%2F%3E%3C%2FmxCell%3E%3C%2Froot%3E%3C%2FmxGraphModel%3E&lt;/span&gt;&lt;/div&gt;" style="text;html=1;align=center;verticalAlign=middle;whiteSpace=wrap;rounded=0;" vertex="1" parent="1">
          <mxGeometry x="1027.5" y="-232.5" width="60" height="30" as="geometry" />
        </mxCell>
        <mxCell id="GUjsyFHACSfxRPO5kIcC-131" value="Correl&lt;div&gt;finale&lt;span style=&quot;color: rgba(0, 0, 0, 0); font-family: monospace; font-size: 0px; text-align: start; text-wrap-mode: nowrap; background-color: transparent;&quot;&gt;%3CmxGraphModel%3E%3Croot%3E%3CmxCell%20id%3D%220%22%2F%3E%3CmxCell%20id%3D%221%22%20parent%3D%220%22%2F%3E%3CmxCell%20id%3D%222%22%20value%3D%22%22%20style%3D%22ellipse%3BwhiteSpace%3Dwrap%3Bhtml%3D1%3Baspect%3Dfixed%3B%22%20vertex%3D%221%22%20parent%3D%221%22%3E%3CmxGeometry%20x%3D%22375%22%20y%3D%22-280%22%20width%3D%2255%22%20height%3D%2255%22%20as%3D%22geometry%22%2F%3E%3C%2FmxCell%3E%3C%2Froot%3E%3C%2FmxGraphModel%3E&lt;/span&gt;&lt;/div&gt;" style="text;html=1;align=center;verticalAlign=middle;whiteSpace=wrap;rounded=0;" vertex="1" parent="1">
          <mxGeometry x="1202.5" y="-232.5" width="60" height="30" as="geometry" />
        </mxCell>
        <mxCell id="GUjsyFHACSfxRPO5kIcC-132" value="Delta&lt;div&gt;Correl&lt;/div&gt;" style="text;html=1;align=center;verticalAlign=middle;whiteSpace=wrap;rounded=0;" vertex="1" parent="1">
          <mxGeometry x="1112.5" y="-217.5" width="60" height="30" as="geometry" />
        </mxCell>
        <mxCell id="GUjsyFHACSfxRPO5kIcC-133" value="" style="rounded=1;whiteSpace=wrap;html=1;movable=1;resizable=1;rotatable=1;deletable=1;editable=1;locked=0;connectable=1;" vertex="1" parent="1">
          <mxGeometry x="1510" y="-320" width="690" height="600" as="geometry" />
        </mxCell>
        <mxCell id="GUjsyFHACSfxRPO5kIcC-140" value="Rendements" style="rounded=1;whiteSpace=wrap;html=1;" vertex="1" parent="1">
          <mxGeometry x="1635" y="-300" width="80" height="30" as="geometry" />
        </mxCell>
        <mxCell id="GUjsyFHACSfxRPO5kIcC-141" value="Volatilité" style="rounded=1;whiteSpace=wrap;html=1;" vertex="1" parent="1">
          <mxGeometry x="1725" y="-300" width="80" height="30" as="geometry" />
        </mxCell>
        <mxCell id="GUjsyFHACSfxRPO5kIcC-142" value="Corrélation" style="rounded=1;whiteSpace=wrap;html=1;" vertex="1" parent="1">
          <mxGeometry x="1815" y="-300" width="80" height="30" as="geometry" />
        </mxCell>
        <mxCell id="GUjsyFHACSfxRPO5kIcC-143" value="Pertes" style="rounded=1;whiteSpace=wrap;html=1;fillColor=#f8cecc;strokeColor=#b85450;" vertex="1" parent="1">
          <mxGeometry x="1902.5" y="-300" width="80" height="30" as="geometry" />
        </mxCell>
        <mxCell id="GUjsyFHACSfxRPO5kIcC-144" value="Synthèse" style="rounded=1;whiteSpace=wrap;html=1;" vertex="1" parent="1">
          <mxGeometry x="1995" y="-300" width="80" height="30" as="geometry" />
        </mxCell>
        <mxCell id="GUjsyFHACSfxRPO5kIcC-145" value="Distribution des rendements" style="rounded=0;whiteSpace=wrap;html=1;" vertex="1" parent="1">
          <mxGeometry x="1572.5" y="-30" width="565" height="210" as="geometry" />
        </mxCell>
        <mxCell id="GUjsyFHACSfxRPO5kIcC-146" value="alpha" style="rounded=1;whiteSpace=wrap;html=1;" vertex="1" parent="1">
          <mxGeometry x="1806.25" y="-245" width="40" height="20" as="geometry" />
        </mxCell>
        <mxCell id="GUjsyFHACSfxRPO5kIcC-147" value="T" style="rounded=1;whiteSpace=wrap;html=1;" vertex="1" parent="1">
          <mxGeometry x="1863.75" y="-245" width="40" height="20" as="geometry" />
        </mxCell>
        <mxCell id="GUjsyFHACSfxRPO5kIcC-148" value="Var" style="ellipse;whiteSpace=wrap;html=1;aspect=fixed;" vertex="1" parent="1">
          <mxGeometry x="1710" y="-165" width="80" height="80" as="geometry" />
        </mxCell>
        <mxCell id="GUjsyFHACSfxRPO5kIcC-149" value="Graphique Beta" style="rounded=0;whiteSpace=wrap;html=1;" vertex="1" parent="1">
          <mxGeometry x="-495" y="180" width="460" height="120" as="geometry" />
        </mxCell>
        <mxCell id="GUjsyFHACSfxRPO5kIcC-150" value="Var" style="ellipse;whiteSpace=wrap;html=1;aspect=fixed;" vertex="1" parent="1">
          <mxGeometry x="1823.75" y="-165" width="80" height="80" as="geometry" />
        </mxCell>
      </root>
    </mxGraphModel>
  </diagram>
</mxfile>
